<svg width="83" height="90" viewBox="0 0 83 90" fill="none" xmlns="http://www.w3.org/2000/svg">
<path d="M72.1833 1.75C70.4306 3.5 70.3805 3.6 70.6309 6.7L70.9314 9.9L56.8096 23.95L42.6878 38.05L40.7348 37.2C39.4328 36.7 38.0307 36.5 36.7287 36.65L34.6755 36.95L28.5661 26.15C24.3095 18.65 22.5568 15.2 22.9574 14.8C23.2078 14.55 23.4582 13.45 23.4582 12.4C23.4582 8.45 18.9512 6.5 16.197 9.25C13.6931 11.7 15.2956 16.5 18.6007 16.5C20.1531 16.5 20.3534 16.8 26.2124 27.1C29.5175 32.95 32.2217 37.85 32.2217 38C32.2217 38.15 31.8712 38.75 31.4205 39.4L30.6192 40.5L23.7587 37.7C20.0029 36.15 16.9482 34.6 16.9482 34.25C16.9482 33.95 16.4975 33.25 15.9967 32.8C14.5945 31.55 12.3911 31.95 11.4397 33.6C10.7887 34.85 10.7887 35.15 11.4397 36.35C12.1407 37.6 12.5414 37.75 14.9451 37.75C17.0483 37.8 19.0514 38.35 23.5583 40.25L29.3673 42.65L29.5676 45.05L29.7178 47.45L19.4019 52.7C9.28634 57.9 9.03595 58 7.63379 57.25C4.92962 55.85 1.6746 56.75 0.522824 59.25C-1.27996 63.15 1.82483 67.1 6.0814 66.3C8.23472 65.9 9.53672 64.5 9.88727 62.1C10.1877 60.25 10.1877 60.25 20.4536 54.95C30.4189 49.8 30.7695 49.7 31.7209 50.55C33.1732 51.8 36.1778 53 37.9806 53C38.7818 53 39.4829 53.1 39.4829 53.2C39.4829 53.25 41.5361 58.85 43.9899 65.55C46.4937 72.2 48.4968 77.9 48.4968 78.15C48.4968 78.4 47.946 79.25 47.2449 80.1C46.2934 81.25 45.9929 82.15 45.9929 84.1C45.9929 86.3 46.1933 86.8 47.6956 88.3C49.1478 89.75 49.7487 90 51.852 90C55.3574 90 57.6609 88.25 58.2619 85.15C58.8628 81.85 55.9082 78 52.7534 78H51.1509L46.5939 65.35C44.0399 58.45 41.9868 52.6 41.9868 52.35C41.9868 52.15 42.6878 51.25 43.5392 50.35L45.0915 48.7L56.2588 52.65C66.9753 56.45 67.426 56.7 67.7264 58.05C68.4776 62 73.2349 63.35 76.0893 60.55C78.6433 58 77.7419 53.7 74.4368 52.55C72.634 51.9 70.681 52.3 69.2788 53.5C68.3274 54.3 67.8266 54.2 57.0099 50.35L45.7426 46.35L45.8427 42.85L54.3558 39.5C60.966 36.9 63.0192 36.3 63.6702 36.7C64.3212 37.1 64.872 37.05 65.9237 36.5C67.426 35.65 67.8767 34.1 67.0254 32.5C66.2241 31.05 62.9691 31.25 62.3181 32.8C61.9676 33.6 59.6139 34.8 53.4044 37.25C48.7472 39.1 44.7911 40.45 44.5908 40.3C44.4405 40.1 50.7002 33.55 58.5122 25.7C71.4822 12.75 72.8844 11.5 74.0362 11.85C77.5917 12.9 80.8968 11.65 82.2488 8.75C83.2504 6.65 83.2504 5.35 82.2488 3.2C81.1972 1.05 79.2943 0 76.2396 0C74.2866 0 73.6856 0.25 72.1833 1.75ZM41.1354 41.55C42.9883 43.55 42.9883 45.95 41.0854 48.05C37.4798 52.05 31.0699 47.85 33.1231 42.9C33.9744 40.9 36.5784 39.4 38.4814 39.8C39.1824 39.95 40.3342 40.75 41.1354 41.55Z" fill="url(#paint0_linear_216_649)"/>
<path d="M35.5769 42.6C34.7256 43.45 34.8258 46.25 35.6771 46.95C36.0777 47.3 37.1794 47.5 38.0808 47.4C39.3327 47.3 39.8335 46.95 40.184 45.9C40.9352 43.75 39.8836 42 37.8304 42C36.929 42 35.9275 42.25 35.5769 42.6Z" fill="url(#paint1_linear_216_649)"/>
<defs>
<linearGradient id="paint0_linear_216_649" x1="41.5" y1="0" x2="41.5" y2="90" gradientUnits="userSpaceOnUse">
<stop stop-color="#3EC100"/>
<stop offset="1" stop-color="#38B0E3"/>
</linearGradient>
<linearGradient id="paint1_linear_216_649" x1="41.5" y1="0" x2="41.5" y2="90" gradientUnits="userSpaceOnUse">
<stop stop-color="#3EC100"/>
<stop offset="1" stop-color="#38B0E3"/>
</linearGradient>
</defs>
</svg>
