<svg width="205" height="36" viewBox="0 0 205 36" fill="none" xmlns="http://www.w3.org/2000/svg">
<path d="M0.5 0.599998V-1.4H-1.5V0.599998H0.5ZM0.5 35H-1.5V37H0.5V35ZM7.25 7V5H5.25V7H7.25ZM7.25 28.6H5.25V30.6H7.25V28.6ZM12.2 37C17.9842 37 23.3577 35.6235 27.3261 32.4416C31.3624 29.2054 33.7 24.2964 33.7 17.8H29.7C29.7 23.2536 27.7876 26.9446 24.8239 29.3209C21.7923 31.7515 17.4158 33 12.2 33V37ZM33.7 17.8C33.7 11.3264 31.3609 6.4194 27.3278 3.17848C23.361 -0.00911999 17.9882 -1.4 12.2 -1.4V2.6C17.4118 2.6 21.789 3.85912 24.8222 6.29652C27.7891 8.6806 29.7 12.3736 29.7 17.8H33.7ZM12.2 -1.4H0.5V2.6H12.2V-1.4ZM-1.5 0.599998V35H2.5V0.599998H-1.5ZM0.5 37H12.2V33H0.5V37ZM7.25 9H12.2V5H7.25V9ZM12.2 9C16.5846 9 19.1794 10.106 20.6811 11.5655C22.1756 13.0179 22.9 15.1249 22.9 17.8H26.9C26.9 14.4251 25.9744 11.1321 23.4689 8.69701C20.9706 6.26898 17.2154 5 12.2 5V9ZM22.9 17.8C22.9 20.4751 22.1756 22.5821 20.6811 24.0345C19.1794 25.494 16.5846 26.6 12.2 26.6V30.6C17.2154 30.6 20.9706 29.331 23.4689 26.903C25.9744 24.4679 26.9 21.1749 26.9 17.8H22.9ZM12.2 26.6H7.25V30.6H12.2V26.6ZM9.25 28.6V7H5.25V28.6H9.25ZM63.1098 33.35L63.932 35.1732L65.5534 34.4419L65.0164 32.7462L63.1098 33.35ZM61.2098 27.35L63.1165 26.7462L62.499 24.7964L60.5635 25.4573L61.2098 27.35ZM45.7598 25.3L45.7704 23.3L42.4732 23.2824L43.9812 26.2147L45.7598 25.3ZM64.5098 25.4L64.4991 27.4L66.3188 27.4097L66.4998 25.599L64.5098 25.4ZM57.8598 19.7L57.876 21.6999L59.8598 21.6839V19.7H57.8598ZM45.5098 19.8L43.6392 19.0922L42.6057 21.8236L45.526 21.7999L45.5098 19.8ZM66.7098 21.45C66.7098 17.0213 65.0592 13.4798 62.3722 11.063C59.716 8.67388 56.1796 7.5 52.5598 7.5V11.5C55.3399 11.5 57.8785 12.4011 59.6973 14.037C61.4853 15.6452 62.7098 18.0787 62.7098 21.45H66.7098ZM52.5598 7.5C47.8652 7.5 43.7819 8.90934 40.8468 11.5509C37.8928 14.2096 36.2598 17.9785 36.2598 22.35H40.2598C40.2598 19.0215 41.4768 16.3654 43.5227 14.5241C45.5876 12.6657 48.6543 11.5 52.5598 11.5V7.5ZM36.2598 22.35C36.2598 26.7714 38.0429 30.541 41.1046 33.1779C44.1418 35.7937 48.3189 37.2 53.0098 37.2V33.2C49.1006 33.2 45.9028 32.0313 43.7149 30.1471C41.5517 28.284 40.2598 25.6286 40.2598 22.35H36.2598ZM53.0098 37.2C57.1625 37.2 61.0589 36.4689 63.932 35.1732L62.2876 31.5268C60.0607 32.5311 56.757 33.2 53.0098 33.2V37.2ZM65.0164 32.7462L63.1165 26.7462L59.3031 27.9538L61.2031 33.9538L65.0164 32.7462ZM60.5635 25.4573C58.6453 26.1123 56.1717 26.75 53.1098 26.75V30.75C56.7479 30.75 59.6742 29.9877 61.8561 29.2427L60.5635 25.4573ZM53.1098 26.75C51.1355 26.75 49.874 26.3731 49.0684 25.9294C48.2803 25.4953 47.824 24.9407 47.5383 24.3853L43.9812 26.2147C44.5955 27.4093 45.5892 28.5797 47.1386 29.4331C48.6705 30.2769 50.634 30.75 53.1098 30.75V26.75ZM45.7491 27.3L64.4991 27.4L64.5204 23.4L45.7704 23.3L45.7491 27.3ZM64.5098 25.4C66.4998 25.599 66.4998 25.5989 66.4999 25.5988C66.4999 25.5988 66.4999 25.5986 66.4999 25.5985C66.4999 25.5984 66.4999 25.5981 66.5 25.5979C66.5 25.5974 66.5001 25.5968 66.5001 25.596C66.5003 25.5946 66.5005 25.5926 66.5007 25.5902C66.5012 25.5853 66.5019 25.5785 66.5027 25.5699C66.5044 25.5526 66.5067 25.528 66.5097 25.4964C66.5156 25.4334 66.5238 25.3427 66.5337 25.2284C66.5533 25.0001 66.5793 24.6766 66.6053 24.2904C66.6569 23.5227 66.7098 22.4865 66.7098 21.45H62.7098C62.7098 22.3635 62.6627 23.3023 62.6143 24.0221C62.5902 24.3796 62.5662 24.678 62.5484 24.8856C62.5395 24.9893 62.5321 25.0701 62.527 25.1241C62.5245 25.151 62.5226 25.1713 62.5213 25.1843C62.5207 25.1908 62.5202 25.1954 62.52 25.1982C62.5198 25.1996 62.5197 25.2006 62.5197 25.201C62.5197 25.2013 62.5197 25.2014 62.5197 25.2014C62.5197 25.2014 62.5197 25.2013 62.5197 25.2013C62.5197 25.2012 62.5197 25.2012 62.5197 25.2012C62.5197 25.2011 62.5197 25.201 64.5098 25.4ZM52.6598 17.95C53.9694 17.95 54.8209 18.2304 55.2844 18.551C55.6605 18.8112 55.8598 19.1357 55.8598 19.7H59.8598C59.8598 17.8143 59.0091 16.2638 57.5601 15.2615C56.1986 14.3196 54.4502 13.95 52.6598 13.95V17.95ZM57.8436 17.7001L45.4936 17.8001L45.526 21.7999L57.876 21.6999L57.8436 17.7001ZM47.3803 20.5078C47.6037 19.9175 47.9966 19.3233 48.7122 18.8581C49.4391 18.3857 50.6483 17.95 52.6598 17.95V13.95C50.0713 13.95 48.0554 14.5143 46.5323 15.5044C44.998 16.5017 44.1158 17.8325 43.6392 19.0922L47.3803 20.5078ZM102.965 0.599998H104.965V-1.4H102.965V0.599998ZM96.1648 0.599998V-1.4H94.1648V0.599998H96.1648ZM96.1648 13.85V15.85H98.1648V13.85H96.1648ZM79.2648 13.85H77.2648V15.85H79.2648V13.85ZM79.2648 0.599998H81.2648V-1.4H79.2648V0.599998ZM72.4648 0.599998V-1.4H70.4648V0.599998H72.4648ZM72.4648 35H70.4648V37H72.4648V35ZM79.2648 35V37H81.2648V35H79.2648ZM79.2648 20.25V18.25H77.2648V20.25H79.2648ZM96.1648 20.25H98.1648V18.25H96.1648V20.25ZM96.1648 35H94.1648V37H96.1648V35ZM102.965 35V37H104.965V35H102.965ZM102.965 -1.4H96.1648V2.6H102.965V-1.4ZM94.1648 0.599998V13.85H98.1648V0.599998H94.1648ZM96.1648 11.85H79.2648V15.85H96.1648V11.85ZM81.2648 13.85V0.599998H77.2648V13.85H81.2648ZM79.2648 -1.4H72.4648V2.6H79.2648V-1.4ZM70.4648 0.599998V35H74.4648V0.599998H70.4648ZM72.4648 37H79.2648V33H72.4648V37ZM81.2648 35V20.25H77.2648V35H81.2648ZM79.2648 22.25H96.1648V18.25H79.2648V22.25ZM94.1648 20.25V35H98.1648V20.25H94.1648ZM96.1648 37H102.965V33H96.1648V37ZM104.965 35V0.599998H100.965V35H104.965ZM132.763 35L130.794 35.3516L131.088 37H132.763V35ZM138.713 35V37H140.713V35H138.713ZM138.713 10.2H140.713V8.2983L138.814 8.20254L138.713 10.2ZM132.763 9.9L132.864 7.90254L131.115 7.81438L130.796 9.53582L132.763 9.9ZM132.513 11.25L131.77 13.107L134.035 14.013L134.479 11.6142L132.513 11.25ZM132.513 33.6L134.482 33.2484L134.05 30.8311L131.77 31.743L132.513 33.6ZM131.963 17.35H133.963V15.9893L132.697 15.4897L131.963 17.35ZM131.963 27.5L132.659 29.3749L133.963 28.8906V27.5H131.963ZM132.763 37H138.713V33H132.763V37ZM140.713 35V10.2H136.713V35H140.713ZM138.814 8.20254L132.864 7.90254L132.662 11.8975L138.612 12.1975L138.814 8.20254ZM130.796 9.53582L130.546 10.8858L134.479 11.6142L134.729 10.2642L130.796 9.53582ZM133.256 9.39305C130.89 8.44659 127.621 7.5 124.563 7.5V11.5C126.905 11.5 129.636 12.2534 131.77 13.107L133.256 9.39305ZM124.563 7.5C119.865 7.5 115.874 8.91244 113.041 11.582C110.198 14.2617 108.713 18.0294 108.713 22.35H112.713C112.713 18.9706 113.853 16.3133 115.785 14.493C117.727 12.6626 120.661 11.5 124.563 11.5V7.5ZM108.713 22.35C108.713 26.6875 110.247 30.4545 113.119 33.1269C115.979 35.7869 119.988 37.2 124.663 37.2V33.2C120.788 33.2 117.822 32.0381 115.844 30.1981C113.879 28.3705 112.713 25.7125 112.713 22.35H108.713ZM124.663 37.2C127.775 37.2 130.829 36.4275 133.256 35.457L131.77 31.743C129.696 32.5725 127.151 33.2 124.663 33.2V37.2ZM130.544 33.9516L130.794 35.3516L134.732 34.6484L134.482 33.2484L130.544 33.9516ZM125.163 26.75C121.957 26.75 120.739 25.7657 120.218 25.0487C119.609 24.2117 119.513 23.1613 119.513 22.35H115.513C115.513 23.3387 115.592 25.4883 116.983 27.4013C118.461 29.4343 121.069 30.75 125.163 30.75V26.75ZM119.513 22.35C119.513 21.5387 119.609 20.4883 120.218 19.6513C120.739 18.9343 121.957 17.95 125.163 17.95V13.95C121.069 13.95 118.461 15.2657 116.983 17.2987C115.592 19.2117 115.513 21.3613 115.513 22.35H119.513ZM125.163 17.95C127.002 17.95 129.499 18.5278 131.229 19.2103L132.697 15.4897C130.626 14.6722 127.624 13.95 125.163 13.95V17.95ZM129.963 17.35V27.5H133.963V17.35H129.963ZM131.267 25.6251C129.681 26.2141 127.57 26.75 125.163 26.75V30.75C128.156 30.75 130.745 30.0859 132.659 29.3749L131.267 25.6251ZM168.451 17.65L167.616 19.4674L169.455 20.3122L170.278 18.4637L168.451 17.65ZM171.101 11.7L172.928 12.5137L173.714 10.7501L171.979 9.90286L171.101 11.7ZM171.551 32.7L172.487 34.4676L174.208 33.5565L173.343 31.8119L171.551 32.7ZM168.751 27.05L170.543 26.1619L169.711 24.4833L167.982 25.2038L168.751 27.05ZM161.351 26.75C158.149 26.75 156.763 25.7635 156.118 24.967C155.407 24.0876 155.251 23.0115 155.251 22.35H151.251C151.251 23.4885 151.495 25.6124 153.009 27.483C154.589 29.4365 157.253 30.75 161.351 30.75V26.75ZM155.251 22.35C155.251 21.6885 155.407 20.6124 156.118 19.733C156.763 18.9365 158.149 17.95 161.351 17.95V13.95C157.253 13.95 154.589 15.2635 153.009 17.217C151.495 19.0876 151.251 21.2115 151.251 22.35H155.251ZM161.351 17.95C163.421 17.95 165.929 18.6923 167.616 19.4674L169.286 15.8326C167.273 14.9077 164.181 13.95 161.351 13.95V17.95ZM170.278 18.4637L172.928 12.5137L169.274 10.8863L166.624 16.8363L170.278 18.4637ZM171.979 9.90286C169.59 8.73609 165.391 7.5 161.351 7.5V11.5C164.711 11.5 168.313 12.5639 170.223 13.4971L171.979 9.90286ZM161.351 7.5C156.525 7.5 152.305 8.89836 149.259 11.5221C146.186 14.1684 144.451 17.9434 144.451 22.35H148.451C148.451 19.0566 149.716 16.4066 151.869 14.5529C154.047 12.6766 157.277 11.5 161.351 11.5V7.5ZM144.451 22.35C144.451 26.7566 146.186 30.5316 149.259 33.1779C152.305 35.8016 156.525 37.2 161.351 37.2V33.2C157.277 33.2 154.047 32.0234 151.869 30.1471C149.716 28.2934 148.451 25.6434 148.451 22.35H144.451ZM161.351 37.2C165.663 37.2 169.682 35.9526 172.487 34.4676L170.615 30.9324C168.32 32.1474 164.939 33.2 161.351 33.2V37.2ZM173.343 31.8119L170.543 26.1619L166.959 27.9381L169.759 33.5881L173.343 31.8119ZM167.982 25.2038C166.222 25.9373 164.231 26.75 161.351 26.75V30.75C165.071 30.75 167.681 29.6627 169.52 28.8962L167.982 25.2038ZM194.839 10.3L194.71 8.30417L193.826 8.3614L193.274 9.05495L194.839 10.3ZM186.089 21.3H184.089V27.027L187.654 22.545L186.089 21.3ZM186.089 0.249997H188.089V-1.85639L185.986 -1.74732L186.089 0.249997ZM179.339 0.599998L179.236 -1.39732L177.339 -1.29898V0.599998H179.339ZM179.339 35H177.339V37H179.339V35ZM186.089 35V37H188.089V35H186.089ZM186.089 31.25L184.531 29.9956L184.089 30.5448V31.25H186.089ZM190.639 25.6L192.329 24.5303L190.834 22.1689L189.081 24.3456L190.639 25.6ZM196.589 35L194.899 36.0697L195.488 37H196.589V35ZM204.289 35V37H207.935L205.976 33.9251L204.289 35ZM194.889 20.25L193.331 18.9961L192.431 20.1144L193.202 21.3249L194.889 20.25ZM203.339 9.75L204.897 11.0039L207.749 7.46048L203.21 7.75417L203.339 9.75ZM193.274 9.05495L184.524 20.055L187.654 22.545L196.404 11.545L193.274 9.05495ZM188.089 21.3V0.249997H184.089V21.3H188.089ZM185.986 -1.74732L179.236 -1.39732L179.443 2.59732L186.193 2.24731L185.986 -1.74732ZM177.339 0.599998V35H181.339V0.599998H177.339ZM179.339 37H186.089V33H179.339V37ZM188.089 35V31.25H184.089V35H188.089ZM187.647 32.5044L192.197 26.8544L189.081 24.3456L184.531 29.9956L187.647 32.5044ZM188.949 26.6697L194.899 36.0697L198.279 33.9303L192.329 24.5303L188.949 26.6697ZM196.589 37H204.289V33H196.589V37ZM205.976 33.9251L196.576 19.1751L193.202 21.3249L202.602 36.0749L205.976 33.9251ZM196.447 21.5039L204.897 11.0039L201.781 8.49609L193.331 18.9961L196.447 21.5039ZM203.21 7.75417L194.71 8.30417L194.968 12.2958L203.468 11.7458L203.21 7.75417Z" fill="#929292"/>
</svg>
