<svg width="23" height="21" viewBox="0 0 23 21" fill="none" xmlns="http://www.w3.org/2000/svg">
<path d="M11.4483 0.896484C10.0355 0.896484 8.63647 1.15791 7.33117 1.66583C6.02588 2.17375 4.83985 2.91822 3.84082 3.85673C1.82319 5.75215 0.689697 8.32288 0.689697 11.0034C0.689697 15.4707 3.77742 19.2607 8.04859 20.605C8.58652 20.6858 8.75866 20.3725 8.75866 20.0996C8.75866 19.8672 8.75866 19.2304 8.75866 18.3916C5.77852 18.998 5.14377 17.0372 5.14377 17.0372C4.64887 15.8648 3.94956 15.5515 3.94956 15.5515C2.97053 14.9249 4.02487 14.9451 4.02487 14.9451C5.10073 15.0158 5.67094 15.9861 5.67094 15.9861C6.60694 17.5224 8.18846 17.0675 8.8017 16.825C8.89852 16.168 9.17825 15.7233 9.47949 15.4707C7.09108 15.218 4.58432 14.3488 4.58432 10.4981C4.58432 9.37619 4.99315 8.47667 5.69246 7.75908C5.58487 7.50641 5.20832 6.45529 5.80004 5.09085C5.80004 5.09085 6.70377 4.81797 8.75866 6.12176C9.60859 5.89941 10.5338 5.78823 11.4483 5.78823C12.3628 5.78823 13.288 5.89941 14.138 6.12176C16.1929 4.81797 17.0966 5.09085 17.0966 5.09085C17.6883 6.45529 17.3118 7.50641 17.2042 7.75908C17.9035 8.47667 18.3123 9.37619 18.3123 10.4981C18.3123 14.3589 15.7948 15.2079 13.3956 15.4605C13.7829 15.7739 14.138 16.3904 14.138 17.3303C14.138 18.6847 14.138 19.7762 14.138 20.0996C14.138 20.3725 14.3101 20.6959 14.8588 20.605C19.13 19.2506 22.2069 15.4707 22.2069 11.0034C22.2069 9.67614 21.9287 8.36188 21.388 7.13565C20.8473 5.90942 20.0548 4.79524 19.0558 3.85673C18.0568 2.91822 16.8708 2.17375 15.5655 1.66583C14.2602 1.15791 12.8612 0.896484 11.4483 0.896484Z" fill="#929292"/>
</svg>
