<svg width="38" height="29" viewBox="0 0 38 29" fill="none" xmlns="http://www.w3.org/2000/svg">
<path d="M13.5408 0.0152172C13.5285 0.027563 13.4363 0.0522546 13.3379 0.0707733C12.6062 0.194231 11.9667 0.330035 11.77 0.40411C11.7208 0.422628 11.6347 0.441147 11.5855 0.44732C11.2904 0.472012 10.9707 0.558432 10.9707 0.607815C10.9707 0.63868 10.9522 0.657199 10.9276 0.651026C10.8108 0.620161 10.2943 0.737446 10.2943 0.793002C10.2943 0.83004 10.2636 0.836213 10.2328 0.817694C10.1959 0.793002 10.0853 0.823867 9.9746 0.87325C9.87007 0.928806 9.74095 0.972016 9.68562 0.972016C9.63028 0.972016 9.26751 1.0893 8.88015 1.22511C8.49279 1.36091 8.13002 1.48437 8.08083 1.49671C8.03164 1.50906 7.90867 1.55227 7.80415 1.59548C7.70577 1.63869 7.60739 1.67573 7.58895 1.6819C7.42908 1.73746 7.07861 1.87943 6.78963 2.00289C6.67281 2.05845 6.4822 2.13869 6.37767 2.1819C5.87349 2.39796 5.73207 2.49055 5.60295 2.69425C5.52917 2.81771 5.47383 2.935 5.48613 2.95969C5.49228 2.99055 5.46768 3.00907 5.43694 3.00907C5.40005 3.00907 5.37545 3.05228 5.37545 3.10167C5.37545 3.15105 5.35086 3.19426 5.32012 3.19426C5.26478 3.19426 4.7237 4.05847 4.74215 4.1202C4.7483 4.13871 4.69911 4.20662 4.63762 4.27452C4.57614 4.34242 4.45931 4.52761 4.37323 4.68193C4.2933 4.84242 4.18263 5.03378 4.12729 5.10786C4.07195 5.18811 4.04121 5.27453 4.05965 5.30539C4.0781 5.33008 4.0658 5.35477 4.04121 5.35477C3.96743 5.35477 3.58621 6.07083 3.6354 6.11404C3.65385 6.13873 3.6477 6.15725 3.61696 6.15725C3.53702 6.15725 2.38724 8.53999 2.3442 8.79308C2.3319 8.85481 2.28886 8.97209 2.23967 9.05851C2.19663 9.14493 2.15974 9.21901 2.17204 9.23135C2.17818 9.23753 2.14129 9.32395 2.09825 9.41654C2.01217 9.58321 1.93224 9.84247 1.93839 9.94741C1.94454 9.97828 1.91994 10.0215 1.8892 10.04C1.82157 10.0894 1.31738 11.5894 1.31738 11.7499C1.31738 11.8178 1.28664 11.9042 1.24975 11.9413C1.219 11.9721 1.18211 12.0709 1.16982 12.1511C1.15752 12.2314 1.13292 12.3425 1.12063 12.3919C1.04684 12.5956 0.942318 12.9845 0.930021 13.1018C0.923872 13.1697 0.899278 13.2561 0.874683 13.2869C0.837792 13.3487 0.751711 13.7499 0.733266 13.9351C0.733266 13.9907 0.708671 14.0586 0.690226 14.0894C0.67178 14.1265 0.634888 14.2499 0.616442 14.3672C0.597997 14.4845 0.567254 14.6512 0.548808 14.7376C0.505768 14.9413 0.462728 15.2129 0.425836 15.4783C0.40739 15.5956 0.358202 15.9166 0.309013 16.1882C0.259824 16.4598 0.204487 16.8734 0.179892 17.1141C0.155298 17.3487 0.124555 17.645 0.112258 17.7623C-0.0414569 19.0092 -0.0353083 22.6944 0.118406 23.8611C0.143001 24.0525 0.45043 24.429 0.585699 24.429C0.634888 24.429 0.8009 24.5525 0.979209 24.7192C1.0284 24.7624 1.08988 24.7994 1.12678 24.7994C1.16367 24.7994 1.19441 24.8241 1.19441 24.8611C1.19441 24.892 1.23745 24.9229 1.28664 24.9229C1.33583 24.9229 1.37887 24.9476 1.37887 24.9846C1.37887 25.0155 1.42191 25.0463 1.4711 25.0463C1.52029 25.0463 1.56333 25.071 1.56333 25.108C1.56333 25.1389 1.59407 25.1698 1.63096 25.1698C1.66785 25.1698 1.83386 25.2685 1.99373 25.3858C2.15359 25.5031 2.30116 25.6019 2.32575 25.6019C2.3442 25.6019 2.55325 25.7253 2.79304 25.8797C3.03284 26.034 3.26034 26.1636 3.29723 26.176C3.34027 26.1821 3.4202 26.2315 3.47554 26.2809C3.70304 26.4784 6.6974 27.9229 6.98024 27.9723C7.02942 27.9784 7.12165 28.0155 7.18929 28.0525C7.25692 28.0896 7.3307 28.1204 7.36145 28.1266C7.38604 28.1266 7.49057 28.176 7.58895 28.2254C7.69347 28.2809 7.7734 28.3056 7.7734 28.2933C7.7734 28.2747 7.89023 28.3118 8.03164 28.3797C8.17306 28.4414 8.31448 28.4784 8.33907 28.4661C8.36367 28.4476 8.38826 28.4599 8.38826 28.497C8.38826 28.534 8.4313 28.5464 8.48049 28.5278C8.52968 28.5031 8.57272 28.5155 8.57272 28.5464C8.57272 28.6019 9.16913 28.7871 9.26751 28.7624C9.29211 28.7562 9.31055 28.7747 9.31055 28.8118C9.31055 28.8426 9.35359 28.855 9.40278 28.8365C9.45197 28.8118 9.49501 28.8241 9.49501 28.8612C9.49501 28.892 9.56879 28.9352 9.65487 28.9538C9.77784 28.9723 9.82703 28.9538 9.84548 28.8673C9.86392 28.7994 9.89467 28.7501 9.91926 28.7501C9.94386 28.7501 10.0115 28.6636 10.073 28.5649C10.1283 28.4599 10.2451 28.3118 10.3189 28.2254C10.3927 28.1451 10.5095 27.9723 10.5772 27.8426C10.6386 27.713 10.7124 27.5957 10.7432 27.5896C10.7924 27.5649 10.9707 27.2377 10.9768 27.1636C10.9768 27.1328 11.0322 27.0587 11.0936 26.9908C11.1551 26.9229 11.3027 26.6883 11.4195 26.4661C11.5363 26.2439 11.6901 25.9661 11.7638 25.8426L11.893 25.6204L11.6347 25.5093C11.4872 25.4476 11.2904 25.3673 11.1859 25.3179C11.0875 25.2747 10.983 25.2562 10.9584 25.2685C10.9338 25.2871 10.9092 25.2747 10.9092 25.2377C10.9092 25.2068 10.8477 25.1574 10.7739 25.1389C10.5895 25.0834 8.80637 24.1883 8.72643 24.1142C8.68954 24.0772 8.73873 23.9969 8.874 23.892C8.99082 23.7994 9.15069 23.6636 9.23062 23.5895C9.36589 23.4661 9.39663 23.4599 9.5442 23.534C9.99919 23.75 10.1591 23.8179 10.239 23.8364C10.3681 23.8611 10.5526 23.9352 10.7309 24.0278C10.9276 24.1389 12.3603 24.6204 12.514 24.6327C12.5816 24.6389 12.6308 24.6574 12.6308 24.6759C12.6308 24.7068 12.7415 24.7315 12.9874 24.75C13.0243 24.7562 13.0612 24.7809 13.0612 24.8117C13.0612 24.8364 13.1165 24.8611 13.1842 24.8611C13.2518 24.8611 13.5285 24.9167 13.799 24.9908C14.0696 25.0587 14.3524 25.1266 14.4323 25.1327C14.5061 25.1451 14.6106 25.1698 14.6598 25.1883C14.7951 25.2377 15.41 25.3364 15.8957 25.3797C15.9818 25.392 16.0863 25.4167 16.1232 25.4414C16.1601 25.4661 16.2831 25.4846 16.3937 25.4846C16.5044 25.4784 16.8057 25.5031 17.0578 25.534C17.8817 25.6266 20.9191 25.5772 21.7922 25.4537C21.8783 25.4414 22.0996 25.4167 22.2841 25.3858C22.4685 25.3611 22.7821 25.3056 22.9789 25.2624C23.1695 25.2192 23.3293 25.1945 23.3293 25.213C23.3293 25.2315 23.3662 25.213 23.4093 25.1759C23.4585 25.1389 23.5077 25.1204 23.5199 25.1389C23.5384 25.1513 23.772 25.108 24.0364 25.0401C24.307 24.9722 24.6082 24.9043 24.7066 24.8858C24.805 24.8673 24.9157 24.8364 24.9526 24.8179C24.9833 24.7932 25.0817 24.7685 25.1678 24.7624C25.2477 24.75 25.3461 24.713 25.3768 24.6821C25.4137 24.6451 25.4936 24.6142 25.5613 24.6142C25.6228 24.6142 25.9179 24.5278 26.2069 24.4229C26.502 24.3179 26.791 24.2253 26.8586 24.2068C26.9201 24.1945 27.0369 24.1451 27.1169 24.0895C27.1968 24.0401 27.3013 23.9969 27.3567 23.9969C27.4059 23.9969 27.4981 23.9722 27.5596 23.9352C27.6149 23.9043 27.867 23.7932 28.1191 23.6821C28.6294 23.4661 28.6848 23.4784 29.0967 23.8611L29.3181 24.0587L29.1705 24.1636C28.9553 24.3117 27.412 25.0895 27.1661 25.1698C27.0492 25.213 26.957 25.2685 26.957 25.2994C26.957 25.3364 26.9324 25.3488 26.9017 25.3303C26.8648 25.3056 26.293 25.5401 26.17 25.6389C26.1331 25.6636 26.7234 26.7439 26.8525 26.8797C26.9201 26.9599 26.957 27.0216 26.9263 27.0216C26.9017 27.0216 26.9263 27.0772 26.9816 27.1389C27.1046 27.2747 27.3136 27.6204 27.3628 27.7747C27.3874 27.8365 27.4243 27.8859 27.455 27.8859C27.4858 27.8859 27.5104 27.9291 27.5104 27.9784C27.5104 28.0278 27.5411 28.071 27.5719 28.071C27.6088 28.071 27.6334 28.1019 27.6334 28.1328C27.6334 28.2007 27.6887 28.2809 27.8854 28.497C27.9408 28.5587 28.0392 28.6945 28.1006 28.8056C28.2052 28.9846 28.3097 29.0587 28.3097 28.9476C28.3097 28.9167 28.3466 28.892 28.3896 28.892C28.5249 28.892 29.7546 28.4723 29.7977 28.4105C29.8223 28.3797 29.8591 28.3735 29.8837 28.392C29.9022 28.4167 30.0313 28.3797 30.1604 28.3118C30.2957 28.2439 30.4002 28.213 30.4002 28.2377C30.4002 28.2624 30.431 28.25 30.474 28.2068C30.517 28.1636 30.5847 28.1328 30.6277 28.1328C30.6708 28.1328 30.8491 28.0649 31.0274 27.9846C31.2057 27.9044 31.6299 27.7254 31.962 27.5772C32.5891 27.3118 33.5913 26.8118 34.2431 26.4352C34.446 26.3241 34.6735 26.2006 34.7411 26.1636C34.8149 26.1327 35.0732 25.9784 35.3129 25.8241C35.5527 25.6698 35.7741 25.5401 35.8048 25.5401C35.8356 25.5401 35.8725 25.4969 35.8971 25.4476C35.9155 25.3982 35.9585 25.355 36.0016 25.355C36.0754 25.355 37.1022 24.6945 37.1944 24.5834C37.2313 24.5401 37.3481 24.4661 37.4588 24.4043C37.5633 24.3488 37.6556 24.2809 37.6556 24.25C37.6556 24.2192 37.7109 24.1821 37.7847 24.1636C37.8831 24.1389 37.9077 24.0833 37.9015 23.8611C37.8954 23.713 37.9138 23.4846 37.9322 23.3488C38.006 22.9167 38.0245 19.429 37.963 18.7191C37.9322 18.3426 37.8892 17.8055 37.8708 17.5216C37.8523 17.2314 37.8216 16.9783 37.8031 16.9475C37.7847 16.9166 37.7601 16.7499 37.7416 16.5709C37.7293 16.3981 37.7048 16.182 37.6863 16.0956C37.674 16.0154 37.6433 15.8364 37.6187 15.6944C37.6002 15.5586 37.5756 15.4166 37.5695 15.3857C37.5572 15.3487 37.5326 15.182 37.508 15.0154C37.4834 14.8425 37.4465 14.6635 37.4281 14.6141C37.4096 14.5647 37.385 14.466 37.3727 14.3981C37.3666 14.3302 37.342 14.2005 37.3235 14.1018C37.3051 14.0092 37.2743 13.861 37.2498 13.7684C37.2313 13.6758 37.2067 13.5832 37.1883 13.5524C37.1698 13.5277 37.1452 13.4474 37.1268 13.3795C37.1022 13.2437 37.0407 13.0153 37.0161 12.9166C37.01 12.8795 36.9792 12.7252 36.9485 12.5585C36.9239 12.3981 36.8747 12.2684 36.8439 12.2684C36.8132 12.2684 36.8009 12.2437 36.8194 12.2129C36.8439 12.182 36.8255 12.0771 36.7886 11.9783C36.7456 11.8857 36.7087 11.7622 36.6964 11.7129C36.6472 11.4721 36.1492 10.0091 36.1 9.97828C36.0692 9.95976 36.0508 9.92272 36.0569 9.89803C36.0754 9.78691 35.6019 8.50912 35.5158 8.44122C35.4913 8.4227 35.4667 8.36715 35.4544 8.31777C35.3683 7.9227 34.0033 5.21897 33.5299 4.50291C33.4315 4.35477 33.3515 4.22513 33.3515 4.20662C33.3515 4.1881 33.2716 4.04612 33.1671 3.89797C33.0687 3.74982 32.9027 3.5029 32.7982 3.35475C32.6998 3.20661 32.6137 3.05228 32.6137 3.01525C32.6137 2.97821 32.5891 2.94734 32.5522 2.94734C32.5215 2.94734 32.4907 2.90413 32.4907 2.85475C32.4907 2.80537 32.4661 2.76216 32.4293 2.76216C32.3985 2.76216 32.3678 2.72512 32.3678 2.68191C32.3678 2.60783 32.0911 2.36092 32.0419 2.40413C32.0296 2.4103 31.9743 2.37326 31.9128 2.31154C31.8513 2.25598 31.7652 2.2066 31.716 2.2066C31.6668 2.2066 31.5254 2.15104 31.4024 2.08314C31.2795 2.02141 31.1565 1.9782 31.1258 1.99672C31.1012 2.01524 31.0766 1.99672 31.0766 1.96585C31.0766 1.92882 31.0212 1.89795 30.9597 1.89795C30.8921 1.89795 30.8183 1.86709 30.7999 1.83622C30.7814 1.79918 30.7077 1.77449 30.64 1.77449C30.5724 1.77449 30.4556 1.73128 30.3756 1.6819C30.2957 1.62634 30.1789 1.57696 30.1174 1.56461C30.0498 1.55227 29.8591 1.48437 29.687 1.41647C29.5087 1.34239 29.3488 1.30535 29.3304 1.32387C29.3119 1.34856 29.2935 1.33004 29.2935 1.29301C29.2935 1.25597 29.2504 1.23745 29.2012 1.25597C29.1521 1.28066 29.109 1.26214 29.109 1.22511C29.109 1.18807 29.066 1.17572 29.0168 1.19424C28.9676 1.21893 28.9246 1.20659 28.9246 1.17572C28.9246 1.14486 28.8877 1.11399 28.8508 1.10782C28.8077 1.10782 28.5802 1.04609 28.3404 0.972016C27.5227 0.7251 27.2952 0.657199 26.8955 0.570778C26.6742 0.521395 26.4159 0.44732 26.3237 0.410283C26.2315 0.367072 26.1392 0.354727 26.1147 0.379418C26.0962 0.397937 26.047 0.391764 26.0101 0.3609C25.9732 0.330035 25.838 0.286825 25.7088 0.268306C25.5736 0.249787 25.2784 0.188058 25.0387 0.132502C24.805 0.0769462 24.596 0.0522546 24.5775 0.0707733C24.5591 0.089292 24.4914 0.0769462 24.4361 0.0460817C24.3377 -0.00330145 24.2701 0.101638 23.9073 0.836213C23.6798 1.29918 23.4585 1.7498 23.4277 1.83622C23.3416 2.03375 23.2863 2.07079 23.1264 2.03993C22.0443 1.86091 21.245 1.79918 19.425 1.73746C18.4412 1.70659 15.8588 1.84239 15.5821 1.93499C15.5329 1.95351 15.3116 1.98437 15.0841 1.99672L14.6844 2.02758L14.1925 1.03992C13.7621 0.157194 13.6207 -0.0650304 13.5408 0.0152172ZM26.047 12.2067C26.1761 12.2067 26.2807 12.2376 26.2807 12.2746C26.2807 12.3055 26.3114 12.3178 26.3483 12.2993C26.379 12.2746 26.459 12.2931 26.5143 12.3425C26.5696 12.3919 26.7664 12.5092 26.9447 12.6018C27.123 12.6944 27.3751 12.8795 27.4981 13.003C27.8055 13.3116 28.1252 13.6882 28.0822 13.6882C28.0576 13.6882 28.0822 13.7376 28.1314 13.7931C28.4696 14.2005 28.6909 15.0771 28.6786 15.966C28.6725 16.7376 28.611 17.0339 28.3343 17.6265C28.2175 17.8796 28.1252 18.108 28.1252 18.1388C28.1252 18.1697 28.1006 18.1944 28.0638 18.1944C28.033 18.1944 28.0023 18.2376 28.0023 18.287C28.0023 18.3364 27.9777 18.3796 27.9408 18.3796C27.91 18.3796 27.8117 18.4907 27.7194 18.6327C27.6334 18.7685 27.5473 18.8672 27.5288 18.8487C27.5104 18.8302 27.4489 18.8672 27.3936 18.929C27.3382 18.9907 27.1292 19.1327 26.9263 19.25C26.7234 19.3611 26.5389 19.4784 26.5205 19.5092C26.502 19.5401 26.4651 19.5586 26.4405 19.5524C26.3852 19.5401 26.0163 19.6203 25.9486 19.6636C25.8503 19.7191 25.0202 19.7253 24.7251 19.6697C24.5652 19.645 24.2701 19.5339 24.0672 19.4352C23.8643 19.3302 23.6737 19.25 23.6491 19.2438C23.6245 19.2438 23.5261 19.1821 23.4339 19.1018C22.9604 18.7253 22.8436 18.608 22.8743 18.5586C22.8928 18.5277 22.8805 18.503 22.8498 18.503C22.7821 18.503 22.5546 18.1574 22.4255 17.8611C22.3763 17.7623 22.3087 17.6388 22.2718 17.5895C22.2287 17.5401 22.1919 17.4722 22.1857 17.429C22.1734 17.3919 22.1242 17.1944 22.0627 16.9907C21.9521 16.5956 21.9152 15.5215 21.9951 15.0771C22.0443 14.8117 22.1673 14.466 22.3517 14.1141C22.4132 13.9907 22.4501 13.8734 22.4255 13.8549C22.4071 13.8302 22.4378 13.7993 22.4931 13.7746C22.5485 13.7561 22.5915 13.7005 22.5915 13.6511C22.5915 13.6018 22.6223 13.5647 22.6653 13.5647C22.7022 13.5647 22.7206 13.5462 22.696 13.5277C22.653 13.4845 23.4093 12.7067 23.4646 12.7376C23.4831 12.7499 23.5138 12.7376 23.5261 12.7129C23.5445 12.6573 24.2516 12.3178 24.5283 12.2252C24.6328 12.1943 24.9218 12.1573 25.1739 12.1511C25.426 12.145 25.6474 12.1264 25.6597 12.1079C25.6781 12.0956 25.715 12.1079 25.7519 12.145C25.7826 12.1758 25.9179 12.2067 26.047 12.2067ZM13.922 12.3981C14.1741 12.5215 14.4077 12.6141 14.4323 12.6141C14.4631 12.6079 14.5123 12.6573 14.543 12.7129C14.5799 12.7746 14.6291 12.824 14.6537 12.824C14.6844 12.824 14.832 12.9474 14.9796 13.1018C15.1333 13.2561 15.2439 13.3795 15.2255 13.3795C15.2071 13.3795 15.2501 13.4289 15.3116 13.4845C15.4714 13.6326 15.8711 14.4598 15.9756 14.8672C16.0679 15.2191 16.0924 16.6635 16.0064 16.8364C15.9449 16.966 15.8035 17.4783 15.8158 17.5277C15.8219 17.5586 15.8035 17.5771 15.7727 17.5771C15.7174 17.5771 15.5452 17.9475 15.5698 18.0216C15.576 18.0524 15.5514 18.0709 15.5206 18.0709C15.4837 18.0709 15.4346 18.1265 15.41 18.1882C15.3485 18.3549 14.6168 19.1142 14.4569 19.1882C14.3155 19.2438 14.1003 19.3734 14.045 19.429C14.0265 19.4475 13.9589 19.4722 13.8913 19.4784C13.8236 19.4907 13.756 19.5216 13.7375 19.5463C13.7191 19.5771 13.6638 19.5956 13.6146 19.6018C13.5654 19.6018 13.4424 19.6265 13.3379 19.6512C13.0305 19.7253 12.2557 19.7006 11.8561 19.5956C11.3826 19.4722 10.817 19.1327 10.4234 18.7376C10.2513 18.5648 10.1099 18.4105 10.1099 18.3919C10.1099 18.3734 10.0484 18.2747 9.96845 18.1697C9.80244 17.9413 9.43967 17.1203 9.39048 16.8672C9.37819 16.7993 9.35359 16.6574 9.33514 16.5586C9.27366 16.2129 9.31055 15.3796 9.40893 14.9721C9.43352 14.861 9.45197 14.7314 9.43967 14.6882C9.43352 14.6512 9.45812 14.6141 9.49501 14.6141C9.5319 14.6141 9.55035 14.5894 9.52575 14.5586C9.50731 14.5277 9.56879 14.3672 9.65487 14.2005C9.7471 14.04 9.85163 13.8487 9.88852 13.7808C9.92541 13.7129 9.9869 13.6388 10.0176 13.6141C10.0545 13.5894 10.0545 13.5647 10.0299 13.5647C9.9746 13.5647 10.0545 13.4598 10.362 13.145C10.6264 12.8734 11.069 12.5462 11.2658 12.4906C11.3396 12.466 11.4011 12.4166 11.4011 12.3795C11.4011 12.3425 11.4134 12.324 11.4318 12.3425C11.4503 12.361 11.6101 12.3178 11.7884 12.2561C12.0405 12.1635 12.2496 12.145 12.7845 12.1573C13.4178 12.1758 13.4916 12.1943 13.922 12.3981Z" fill="#929292"/>
</svg>
