<svg width="476" height="489" viewBox="0 0 476 489" fill="none" xmlns="http://www.w3.org/2000/svg">
<g filter="url(#filter0_f_450_609)">
<path d="M232.273 100.19C226.485 100.744 213.556 102.959 209 104.19C206.415 104.928 203.706 105.666 203.028 105.79C196.749 107.389 178.525 115.204 171.63 119.327C152.606 130.649 135.244 147.202 123.361 165.293C116.589 175.631 109.94 189.968 105.569 203.813C102.552 213.413 100.582 226.458 100.089 239.503C98.858 275.562 110.371 309.283 133.705 337.65C137.768 342.573 151.374 355.433 156.546 359.31C165.658 366.017 170.398 368.971 179.018 373.34C217.804 392.969 263.302 394.2 303.074 376.724C316.619 370.755 331.21 361.34 341.615 351.864C348.202 345.772 349.741 343.742 350.419 340.05C352.142 330.943 344.447 322.697 335.581 324.051C331.826 324.666 329.671 325.958 324.438 330.943C307.999 346.449 286.759 356.787 263.056 360.787C255.791 362.017 238.983 362.51 232.58 361.71C216.327 359.556 203.706 355.802 191.023 349.218C185.174 346.203 182.588 344.665 175.262 339.742C171.999 337.527 161.902 328.481 157.777 324.051C131.119 295.253 120.714 254.025 130.38 215.505C132.966 204.982 138.999 190.337 143.063 184.615C143.74 183.753 144.232 182.83 144.232 182.646C144.232 182.461 144.848 181.415 145.649 180.307C156.3 164.739 170.645 151.017 184.559 143.079C199.027 134.834 212.202 130.219 228.271 127.819C236.028 126.65 253.328 126.403 259.054 127.45C261.086 127.757 263.795 128.188 265.087 128.434C280.664 130.649 300.427 139.141 314.402 149.602L317.973 152.248L308.861 161.416C303.874 166.401 299.503 170.339 299.134 170.154C298.764 169.97 297.902 169.293 297.225 168.677C294.516 166.339 282.326 160.001 276.293 157.786C245.94 146.894 211.525 152.555 187.021 172.492C166.827 188.984 155.191 210.767 152.729 236.611C150.081 264.917 161.717 294.207 183.204 313.221C198.042 326.328 216.388 334.142 237.075 336.173C256.776 338.081 278.324 332.666 295.07 321.466C300.796 317.59 301.165 317.344 305.844 313.344C311.94 308.052 313.848 304.791 313.787 299.437C313.725 296.114 311.878 292.053 309.415 289.838C307.445 288.053 303.567 286.761 300.303 286.761C296.548 286.7 293.408 288.238 289.529 291.807C269.89 310.021 241.323 314.821 217.497 303.929C183.943 288.546 169.844 248.549 186.282 215.197C198.842 189.722 227.717 175.2 255.976 180.184C263.979 181.6 275.431 185.968 279.556 189.23C280.171 189.722 278.201 192.06 270.998 199.26L261.64 208.674L259.793 207.751C255.175 205.29 243.724 204.367 236.213 205.721C225.623 207.69 214.357 216.366 209.062 226.827C204.137 236.488 203.829 250.395 208.2 260.117C212.448 269.47 219.282 276.362 228.332 280.546C233.319 282.823 237.998 283.746 244.524 283.808C266.688 283.869 284.05 266.516 283.988 244.487C283.927 238.519 283.126 233.719 281.341 229.596L280.418 227.381L326.9 180.984C354.667 153.232 373.875 133.603 374.676 132.126C377.262 127.203 375.969 120.435 371.597 116.312C369.689 114.466 365.441 112.743 362.855 112.743C358.176 112.743 356.575 113.85 346.601 123.696C341.184 129.111 336.689 133.111 336.443 132.741C334.534 130.034 320.99 121.173 310.831 115.881C296.856 108.682 282.141 103.82 266.442 101.359C260.47 100.375 238.244 99.6361 232.273 100.19ZM251.358 233.719C260.778 239.934 258.561 254.148 247.726 256.733C235.105 259.748 226.547 244.672 235.72 235.565C237.259 234.027 239.414 232.611 240.707 232.242C244.093 231.257 248.649 231.934 251.358 233.719Z" fill="url(#paint0_linear_450_609)"/>
</g>
<path d="M232.273 100.19C226.485 100.744 213.556 102.959 209 104.19C206.415 104.928 203.706 105.666 203.028 105.79C196.749 107.389 178.525 115.204 171.63 119.327C152.606 130.649 135.244 147.202 123.361 165.293C116.589 175.631 109.94 189.968 105.569 203.813C102.552 213.413 100.582 226.458 100.089 239.503C98.858 275.562 110.371 309.283 133.705 337.65C137.768 342.573 151.374 355.433 156.546 359.31C165.658 366.017 170.398 368.971 179.018 373.34C217.804 392.969 263.302 394.2 303.074 376.724C316.619 370.755 331.21 361.34 341.615 351.864C348.202 345.772 349.741 343.742 350.419 340.05C352.142 330.943 344.447 322.697 335.581 324.051C331.826 324.666 329.671 325.958 324.438 330.943C307.999 346.449 286.759 356.787 263.056 360.787C255.791 362.017 238.983 362.51 232.58 361.71C216.327 359.556 203.706 355.802 191.023 349.218C185.174 346.203 182.588 344.665 175.262 339.742C171.999 337.527 161.902 328.481 157.777 324.051C131.119 295.253 120.714 254.025 130.38 215.505C132.966 204.982 138.999 190.337 143.063 184.615C143.74 183.753 144.232 182.83 144.232 182.646C144.232 182.461 144.848 181.415 145.649 180.307C156.3 164.739 170.645 151.017 184.559 143.079C199.027 134.834 212.202 130.219 228.271 127.819C236.028 126.65 253.328 126.403 259.054 127.45C261.086 127.757 263.795 128.188 265.087 128.434C280.664 130.649 300.427 139.141 314.402 149.602L317.973 152.248L308.861 161.416C303.874 166.401 299.503 170.339 299.134 170.154C298.764 169.97 297.902 169.293 297.225 168.677C294.516 166.339 282.326 160.001 276.293 157.786C245.94 146.894 211.525 152.555 187.021 172.492C166.827 188.984 155.191 210.767 152.729 236.611C150.081 264.917 161.717 294.207 183.204 313.221C198.042 326.328 216.388 334.142 237.075 336.173C256.776 338.081 278.324 332.666 295.07 321.466C300.796 317.59 301.165 317.344 305.844 313.344C311.94 308.052 313.848 304.791 313.787 299.437C313.725 296.114 311.878 292.053 309.415 289.838C307.445 288.053 303.567 286.761 300.303 286.761C296.548 286.7 293.408 288.238 289.529 291.807C269.89 310.021 241.323 314.821 217.497 303.929C183.943 288.546 169.844 248.549 186.282 215.197C198.842 189.722 227.717 175.2 255.976 180.184C263.979 181.6 275.431 185.968 279.556 189.23C280.171 189.722 278.201 192.06 270.998 199.26L261.64 208.674L259.793 207.751C255.175 205.29 243.724 204.367 236.213 205.721C225.623 207.69 214.357 216.366 209.062 226.827C204.137 236.488 203.829 250.395 208.2 260.117C212.448 269.47 219.282 276.362 228.332 280.546C233.319 282.823 237.998 283.746 244.524 283.808C266.688 283.869 284.05 266.516 283.988 244.487C283.927 238.519 283.126 233.719 281.341 229.596L280.418 227.381L326.9 180.984C354.667 153.232 373.875 133.603 374.676 132.126C377.262 127.203 375.969 120.435 371.597 116.312C369.689 114.466 365.441 112.743 362.855 112.743C358.176 112.743 356.575 113.85 346.601 123.696C341.184 129.111 336.689 133.111 336.443 132.741C334.534 130.034 320.99 121.173 310.831 115.881C296.856 108.682 282.141 103.82 266.442 101.359C260.47 100.375 238.244 99.6361 232.273 100.19ZM251.358 233.719C260.778 239.934 258.561 254.148 247.726 256.733C235.105 259.748 226.547 244.672 235.72 235.565C237.259 234.027 239.414 232.611 240.707 232.242C244.093 231.257 248.649 231.934 251.358 233.719Z" fill="url(#paint1_linear_450_609)"/>
<defs>
<filter id="filter0_f_450_609" x="0" y="0" width="476" height="489" filterUnits="userSpaceOnUse" color-interpolation-filters="sRGB">
<feFlood flood-opacity="0" result="BackgroundImageFix"/>
<feBlend mode="normal" in="SourceGraphic" in2="BackgroundImageFix" result="shape"/>
<feGaussianBlur stdDeviation="50" result="effect1_foregroundBlur_450_609"/>
</filter>
<linearGradient id="paint0_linear_450_609" x1="238" y1="100" x2="238" y2="389" gradientUnits="userSpaceOnUse">
<stop stop-color="#3EC100"/>
<stop offset="1" stop-color="#38B0E3"/>
</linearGradient>
<linearGradient id="paint1_linear_450_609" x1="238" y1="100" x2="238" y2="389" gradientUnits="userSpaceOnUse">
<stop stop-color="#3EC100"/>
<stop offset="1" stop-color="#38B0E3"/>
</linearGradient>
</defs>
</svg>
