<svg width="23" height="17" viewBox="0 0 23 17" fill="none" xmlns="http://www.w3.org/2000/svg">
<path d="M22.2069 1.89858C21.415 2.23083 20.5613 2.44917 19.6767 2.55359C20.5818 2.05047 21.2812 1.25306 21.6104 0.29428C20.7567 0.768925 19.8104 1.10118 18.8127 1.29103C18.0002 0.474645 16.8585 0 15.5625 0C13.1454 0 11.1706 1.82264 11.1706 4.07245C11.1706 4.39521 11.2118 4.70848 11.2838 5.00276C7.62212 4.83189 4.36162 3.2086 2.19138 0.749939C1.81082 1.34799 1.59482 2.05047 1.59482 2.79091C1.59482 4.20536 2.36623 5.45842 3.55935 6.17039C2.82908 6.17039 2.15024 5.98053 1.55368 5.69574C1.55368 5.69574 1.55368 5.69574 1.55368 5.72422C1.55368 7.69874 3.07593 9.35051 5.09189 9.72073C4.72161 9.81566 4.33076 9.86312 3.92963 9.86312C3.65192 9.86312 3.37421 9.83465 3.10679 9.78718C3.6622 11.3915 5.27703 12.5876 7.22098 12.6161C5.7193 13.7172 3.81649 14.3628 1.73882 14.3628C1.38911 14.3628 1.0394 14.3438 0.689697 14.3058C2.64394 15.4639 4.96846 16.1379 7.45755 16.1379C15.5625 16.1379 20.0161 9.92957 20.0161 4.5471C20.0161 4.36673 20.0161 4.19586 20.0058 4.0155C20.8698 3.44592 21.6104 2.72446 22.2069 1.89858Z" fill="#929292"/>
</svg>
