<svg width="79" height="72" viewBox="0 0 79 72" fill="none" xmlns="http://www.w3.org/2000/svg">
<path d="M36.3076 0.242624C32.9704 0.83249 29.8804 2.30716 27.3311 4.51139C26.1569 5.5359 25.7243 6.24994 25.7243 7.15027C25.7243 8.48523 26.7286 9.46316 28.0882 9.46316C28.9843 9.46316 29.2779 9.32346 30.313 8.37657C31.9198 6.91742 33.7738 5.89292 36.0295 5.24096C37.7599 4.74423 41.1898 4.74423 42.9203 5.24096C45.1451 5.8774 47.169 6.99504 48.7449 8.4697C49.6565 9.32346 49.9809 9.46316 50.8616 9.46316C52.2212 9.46316 53.2254 8.48523 53.2254 7.13474C53.2254 6.29651 52.8855 5.69112 51.8967 4.77528C50.0582 3.06777 47.2926 1.48445 44.9597 0.785922C42.3177 -0.00574057 38.8878 -0.22306 36.3076 0.242624Z" fill="url(#paint0_linear_132_704)"/>
<path d="M37.6982 10.1151C36.6012 10.3169 34.5773 11.3414 33.743 12.1331C32.476 13.3128 32.3524 14.7564 33.4339 15.843C34.3919 16.821 35.7824 16.8054 36.8948 15.843C37.7754 15.0669 38.3934 14.8341 39.4749 14.8341C40.5564 14.8341 41.1744 15.0669 42.0551 15.843C43.1675 16.8054 44.558 16.821 45.5159 15.843C46.5974 14.7564 46.4738 13.3128 45.2223 12.1486C43.322 10.379 40.4019 9.60287 37.6982 10.1151Z" fill="url(#paint1_linear_132_704)"/>
<path d="M17.4586 22.5178C13.9051 22.968 10.5833 24.6289 7.95678 27.2989C5.90192 29.3789 4.60412 31.5987 3.87796 34.2531C3.67711 35.0137 2.71921 39.9189 1.74586 45.1656L0 54.7121V57.2734C0 59.4776 0.0463502 60.0054 0.355351 61.0609C1.1433 63.7774 2.34841 65.8109 4.40327 67.8289C6.01007 69.4122 7.69413 70.4677 9.76444 71.1818C11.7884 71.8648 13.2252 72.0821 15.3728 71.9735C17.6131 71.8648 19.189 71.4612 21.1666 70.4833C25.817 68.1548 29.0152 63.467 29.386 58.391L29.4787 57.1181H49.4711L49.5638 58.4065C49.8419 62.2562 51.974 66.2921 55.0331 68.7292C56.4854 69.9089 58.8802 71.1352 60.5642 71.5699C61.3522 71.7717 62.4955 71.9269 63.7315 71.9735C65.9717 72.0666 67.7485 71.7717 69.8343 70.949C73.4032 69.5674 76.6786 66.23 78.0846 62.5511C78.8416 60.5952 79.0734 59.0895 78.9807 56.6835C78.9189 54.8363 78.6871 53.3306 77.2039 45.2432C76.2615 40.1207 75.3808 35.4328 75.2418 34.8429C74.392 31.1019 71.7037 27.2833 68.3356 25.0791C66.1417 23.6355 63.9169 22.8283 61.2595 22.5023C59.6527 22.316 19.0499 22.316 17.4586 22.5178ZM62.3101 27.5938C66.0181 28.7425 68.7837 31.2261 70.0969 34.6101C70.5913 35.8519 70.4832 35.3086 72.5535 46.7179C74.1757 55.5969 74.2684 56.2023 74.1912 57.6614C74.083 60.2382 73.1251 62.4114 71.2866 64.2431C67.3931 68.1548 61.2904 68.1704 57.397 64.2741C55.4502 62.3338 54.5387 60.3158 54.3069 57.4286C54.1524 55.4572 53.7971 54.5724 52.7928 53.5945C52.422 53.2219 51.7731 52.8183 51.2787 52.6321C50.4599 52.3216 50.1663 52.3061 39.4749 52.3061C28.7835 52.3061 28.4899 52.3216 27.6711 52.6321C26.6513 53.0046 25.6162 53.967 25.1372 54.976C24.8746 55.4882 24.751 56.1557 24.6428 57.382C24.4111 60.3158 23.4995 62.3338 21.5683 64.2586C20.2087 65.6091 18.7718 66.4473 16.9796 66.8975C11.7884 68.2325 6.31907 64.8485 4.94402 59.4621C4.46507 57.5683 4.57322 56.6369 6.39632 46.6403C8.48208 35.231 8.45118 35.3397 9.28548 33.6942C11.0313 30.2171 14.2295 27.8887 18.0766 27.3144C18.4937 27.2523 28.3818 27.2057 40.0156 27.2212L61.1822 27.2368L62.3101 27.5938Z" fill="url(#paint2_linear_132_704)"/>
<path d="M21.5683 32.4369C20.8885 32.5921 20.3323 33.0268 19.9924 33.6787C19.7452 34.1289 19.6988 34.579 19.6988 36.4263V38.646H17.3968C15.2801 38.646 15.0638 38.6771 14.5849 39.003C13.1944 39.9344 13.1789 41.8903 14.5385 42.9303C15.1102 43.3649 15.1565 43.3805 17.4122 43.427L19.6988 43.4891V45.5692C19.6988 47.9131 19.8379 48.4254 20.6104 49.0773C21.6919 50.0087 23.4532 49.6982 24.1484 48.4409C24.4574 47.8976 24.4883 47.6182 24.4883 45.6623V43.4891L26.775 43.427C29.2315 43.3805 29.6487 43.2563 30.2821 42.4025C30.7302 41.7971 30.7765 40.4156 30.3748 39.7637C29.7568 38.7857 29.3242 38.646 26.775 38.646H24.4883V36.3331C24.4883 34.2065 24.4574 34.0047 24.1484 33.5235C23.4841 32.5611 22.6343 32.2041 21.5683 32.4369Z" fill="url(#paint3_linear_132_704)"/>
<path d="M56.2691 32.4369C55.2494 32.6232 54.4614 33.6322 54.4614 34.7653C54.4614 35.4949 54.7241 36.0848 55.2957 36.6125C55.6048 36.9075 55.9137 37.0161 56.609 37.0627C58.1077 37.1714 59.0347 36.4263 59.1892 34.9671C59.3746 33.3372 57.9841 32.142 56.2691 32.4369Z" fill="url(#paint4_linear_132_704)"/>
<path d="M49.3938 38.9565C48.6831 39.3911 48.2814 40.1362 48.2814 41.0055C48.2814 41.9058 48.4359 42.3405 48.9767 42.8682C50.3054 44.2032 52.7156 43.396 53.0091 41.5177C53.1482 40.5243 52.7465 39.5308 52.0203 39.0341C51.2942 38.5374 50.1354 38.5063 49.3938 38.9565Z" fill="url(#paint5_linear_132_704)"/>
<path d="M61.7075 39.003C60.6569 39.7015 60.3015 41.3625 60.9968 42.3715C61.5684 43.2252 62.0937 43.5201 63.0362 43.5201C64.3958 43.5201 65.2765 42.6664 65.3846 41.2538C65.5082 39.7015 64.5503 38.646 63.0362 38.646C62.4645 38.646 62.0783 38.7391 61.7075 39.003Z" fill="url(#paint6_linear_132_704)"/>
<path d="M55.5738 45.1656C54.1215 46.0659 54.0752 48.3322 55.512 49.2326C56.9952 50.1484 58.9265 49.2946 59.2046 47.6027C59.3282 46.7644 58.8956 45.7089 58.2003 45.2432C57.4742 44.7465 56.3154 44.7154 55.5738 45.1656Z" fill="url(#paint7_linear_132_704)"/>
<defs>
<linearGradient id="paint0_linear_132_704" x1="39.5" y1="0" x2="39.5" y2="72" gradientUnits="userSpaceOnUse">
<stop stop-color="#3EC100"/>
<stop offset="1" stop-color="#38B0E3"/>
</linearGradient>
<linearGradient id="paint1_linear_132_704" x1="39.5" y1="0" x2="39.5" y2="72" gradientUnits="userSpaceOnUse">
<stop stop-color="#3EC100"/>
<stop offset="1" stop-color="#38B0E3"/>
</linearGradient>
<linearGradient id="paint2_linear_132_704" x1="39.5" y1="0" x2="39.5" y2="72" gradientUnits="userSpaceOnUse">
<stop stop-color="#3EC100"/>
<stop offset="1" stop-color="#38B0E3"/>
</linearGradient>
<linearGradient id="paint3_linear_132_704" x1="39.5" y1="0" x2="39.5" y2="72" gradientUnits="userSpaceOnUse">
<stop stop-color="#3EC100"/>
<stop offset="1" stop-color="#38B0E3"/>
</linearGradient>
<linearGradient id="paint4_linear_132_704" x1="39.5" y1="0" x2="39.5" y2="72" gradientUnits="userSpaceOnUse">
<stop stop-color="#3EC100"/>
<stop offset="1" stop-color="#38B0E3"/>
</linearGradient>
<linearGradient id="paint5_linear_132_704" x1="39.5" y1="0" x2="39.5" y2="72" gradientUnits="userSpaceOnUse">
<stop stop-color="#3EC100"/>
<stop offset="1" stop-color="#38B0E3"/>
</linearGradient>
<linearGradient id="paint6_linear_132_704" x1="39.5" y1="0" x2="39.5" y2="72" gradientUnits="userSpaceOnUse">
<stop stop-color="#3EC100"/>
<stop offset="1" stop-color="#38B0E3"/>
</linearGradient>
<linearGradient id="paint7_linear_132_704" x1="39.5" y1="0" x2="39.5" y2="72" gradientUnits="userSpaceOnUse">
<stop stop-color="#3EC100"/>
<stop offset="1" stop-color="#38B0E3"/>
</linearGradient>
</defs>
</svg>
