<svg width="475" height="444" viewBox="0 0 475 444" fill="none" xmlns="http://www.w3.org/2000/svg">
<g filter="url(#filter0_f_452_664)">
<path d="M232.688 100.665C231.08 100.986 228.453 102.004 226.844 102.862C220.357 106.452 222.073 103.666 159.991 211.105C128.307 265.924 101.876 312.115 101.233 313.722C100.214 316.134 100 317.741 100 322.832C100 328.834 100.054 329.102 101.823 332.37C104.825 337.89 109.811 341.48 116.888 343.248C119.354 343.891 139.297 343.999 236.977 343.999C363.66 343.999 356.476 344.159 362.963 341.158C367.145 339.229 371.595 334.567 373.042 330.709C374.704 326.315 374.651 319.938 372.935 314.58C371.97 311.472 358.889 288.591 313.855 211.052C250.916 102.808 253.167 106.398 246.252 102.755C244.536 101.844 241.695 100.825 239.979 100.504C236.28 99.8073 236.494 99.8073 232.688 100.665ZM240.569 115.937C241.748 116.794 243.678 118.991 244.858 120.867C248.611 126.815 357.173 314.955 358.46 317.741C360.658 322.403 359.908 326.369 356.316 328.512C354.707 329.477 351.223 329.53 238.103 329.691C154.737 329.745 120.962 329.637 119.407 329.209C118.228 328.887 116.405 327.816 115.44 326.851C113.456 324.868 113.135 322.511 114.368 319.081C115.011 317.42 224.968 126.6 229.096 120.063C231.133 116.794 234.404 114.383 236.709 114.383C237.727 114.383 239.282 114.972 240.569 115.937Z" fill="url(#paint0_linear_452_664)"/>
<path d="M231.937 166.093C230.436 167.54 230.007 168.505 229.739 170.755C229.578 172.309 229.471 193.851 229.578 218.608C229.739 259.922 229.793 263.727 230.651 264.906C233.921 269.514 240.729 269.139 243.035 264.263C243.839 262.548 243.946 258.261 243.946 216.25C243.946 166.147 244.053 167.754 240.998 165.397C239.872 164.539 238.799 164.218 236.655 164.218C234.135 164.218 233.599 164.432 231.937 166.093Z" fill="url(#paint1_linear_452_664)"/>
<path d="M231.187 284.304C225.183 287.304 222.931 294.539 226.04 300.755C228.024 304.773 231.187 306.81 235.851 307.185C239.872 307.453 242.07 306.756 244.965 304.291C249.951 300.112 250.112 290.841 245.233 286.286C241.748 283.018 235.53 282.16 231.187 284.304Z" fill="url(#paint2_linear_452_664)"/>
</g>
<path d="M232.688 100.665C231.08 100.986 228.453 102.004 226.844 102.862C220.357 106.452 222.073 103.666 159.991 211.105C128.307 265.924 101.876 312.115 101.233 313.722C100.214 316.134 100 317.741 100 322.832C100 328.834 100.054 329.102 101.823 332.37C104.825 337.89 109.811 341.48 116.888 343.248C119.354 343.891 139.297 343.999 236.977 343.999C363.66 343.999 356.476 344.159 362.963 341.158C367.145 339.229 371.595 334.567 373.042 330.709C374.704 326.315 374.651 319.938 372.935 314.58C371.97 311.472 358.889 288.591 313.855 211.052C250.916 102.808 253.167 106.398 246.252 102.755C244.536 101.844 241.695 100.825 239.979 100.504C236.28 99.8073 236.494 99.8073 232.688 100.665ZM240.569 115.937C241.748 116.794 243.678 118.991 244.858 120.867C248.611 126.815 357.173 314.955 358.46 317.741C360.658 322.403 359.908 326.369 356.316 328.512C354.707 329.477 351.223 329.53 238.103 329.691C154.737 329.745 120.962 329.637 119.407 329.209C118.228 328.887 116.405 327.816 115.44 326.851C113.456 324.868 113.135 322.511 114.368 319.081C115.011 317.42 224.968 126.6 229.096 120.063C231.133 116.794 234.404 114.383 236.709 114.383C237.727 114.383 239.282 114.972 240.569 115.937Z" fill="url(#paint3_linear_452_664)"/>
<path d="M231.937 166.093C230.436 167.54 230.007 168.505 229.739 170.755C229.578 172.309 229.471 193.851 229.578 218.608C229.739 259.922 229.793 263.727 230.651 264.906C233.921 269.514 240.729 269.139 243.035 264.263C243.839 262.548 243.946 258.261 243.946 216.25C243.946 166.147 244.053 167.754 240.998 165.397C239.872 164.539 238.799 164.218 236.655 164.218C234.135 164.218 233.599 164.432 231.937 166.093Z" fill="url(#paint4_linear_452_664)"/>
<path d="M231.187 284.304C225.183 287.304 222.931 294.539 226.04 300.755C228.024 304.773 231.187 306.81 235.851 307.185C239.872 307.453 242.07 306.756 244.965 304.291C249.951 300.112 250.112 290.841 245.233 286.286C241.748 283.018 235.53 282.16 231.187 284.304Z" fill="url(#paint5_linear_452_664)"/>
<defs>
<filter id="filter0_f_452_664" x="0" y="0" width="474.256" height="444" filterUnits="userSpaceOnUse" color-interpolation-filters="sRGB">
<feFlood flood-opacity="0" result="BackgroundImageFix"/>
<feBlend mode="normal" in="SourceGraphic" in2="BackgroundImageFix" result="shape"/>
<feGaussianBlur stdDeviation="50" result="effect1_foregroundBlur_452_664"/>
</filter>
<linearGradient id="paint0_linear_452_664" x1="237.128" y1="100" x2="237.128" y2="344" gradientUnits="userSpaceOnUse">
<stop stop-color="#3EC100"/>
<stop offset="1" stop-color="#38B0E3"/>
</linearGradient>
<linearGradient id="paint1_linear_452_664" x1="237.128" y1="100" x2="237.128" y2="344" gradientUnits="userSpaceOnUse">
<stop stop-color="#3EC100"/>
<stop offset="1" stop-color="#38B0E3"/>
</linearGradient>
<linearGradient id="paint2_linear_452_664" x1="237.128" y1="100" x2="237.128" y2="344" gradientUnits="userSpaceOnUse">
<stop stop-color="#3EC100"/>
<stop offset="1" stop-color="#38B0E3"/>
</linearGradient>
<linearGradient id="paint3_linear_452_664" x1="237.128" y1="100" x2="237.128" y2="344" gradientUnits="userSpaceOnUse">
<stop stop-color="#3EC100"/>
<stop offset="1" stop-color="#38B0E3"/>
</linearGradient>
<linearGradient id="paint4_linear_452_664" x1="237.128" y1="100" x2="237.128" y2="344" gradientUnits="userSpaceOnUse">
<stop stop-color="#3EC100"/>
<stop offset="1" stop-color="#38B0E3"/>
</linearGradient>
<linearGradient id="paint5_linear_452_664" x1="237.128" y1="100" x2="237.128" y2="344" gradientUnits="userSpaceOnUse">
<stop stop-color="#3EC100"/>
<stop offset="1" stop-color="#38B0E3"/>
</linearGradient>
</defs>
</svg>
