<svg width="521" height="483" viewBox="0 0 521 483" fill="none" xmlns="http://www.w3.org/2000/svg">
<g filter="url(#filter0_f_450_640)">
<path d="M228.461 100.481C174.424 106.695 128.182 142.406 109.071 192.565C101.726 211.805 99.9273 222.211 100.002 245.344C100.002 261.964 100.152 264.061 102.026 272.895C108.246 302.092 120.238 325.15 140.024 345.588C174.949 381.673 225.088 397.095 274.403 386.839C290.816 383.47 309.328 375.983 322.743 367.374L328.139 363.855L340.655 375.684C374.906 408.4 378.129 411.244 381.801 413.041C399.339 421.725 419.649 410.346 420.923 391.256C421.298 385.042 420.324 380.25 417.551 375.459C416.501 373.662 408.257 365.128 399.114 356.369C389.97 347.609 378.803 336.904 374.306 332.487L366.212 324.626L369.435 319.385C377.154 306.808 383.6 290.263 387.047 274.018C389.371 262.713 390.345 239.206 388.921 227.227C386.972 211.58 382.7 196.982 375.73 182.383C355.495 139.935 316.148 110.064 269.681 101.904C259.938 100.182 237.754 99.4332 228.461 100.481ZM266.383 118.449C321.244 127.807 364.638 172.95 371.983 228.35C377.079 266.306 364.488 304.562 337.658 333.011C327.165 344.091 316.073 352.401 302.882 359.064C282.197 369.47 263.91 373.513 240.452 372.764C219.692 372.09 206.201 368.721 187.615 359.513C152.465 342.069 128.107 311.15 119.338 272.67C109.97 231.569 122.186 187.624 151.416 157.004C167.229 140.459 184.617 129.454 205.602 122.716C225.538 116.278 245.548 114.93 266.383 118.449ZM403.91 386.24C406.458 394.1 397.24 402.036 389.895 398.218C388.696 397.619 378.428 388.261 367.111 377.48C355.795 366.7 346.052 357.492 345.527 356.968C344.777 356.294 346.052 354.572 351.373 349.032C355.045 345.139 358.118 341.695 358.118 341.321C358.118 341.021 368.236 350.379 380.527 362.133C397.54 378.304 403.236 384.218 403.91 386.24Z" fill="url(#paint0_linear_450_640)"/>
<path d="M229.21 151.015C220.891 152.437 215.12 154.084 207.925 157.079C180.719 168.458 160.484 191.666 152.689 220.339C150.741 227.601 150.366 230.671 149.991 240.852C149.392 257.697 151.565 269.6 157.936 284.199L159.584 287.942L166.03 281.504L172.4 275.065L170.901 271.097C167.754 262.488 166.629 255.601 166.704 244.221C166.704 235.612 167.079 232.093 168.353 227.077C174.574 203.27 188.963 185.303 210.098 174.896C222.09 168.982 230.634 166.961 243.824 166.886C254.766 166.736 258.814 167.335 269.231 170.629L275.152 172.501L280.998 166.661C284.295 163.442 286.919 160.522 286.919 160.148C286.919 159.25 278.524 155.581 272.304 153.785C259.488 149.967 241.876 148.844 229.21 151.015Z" fill="url(#paint1_linear_450_640)"/>
<path d="M302.283 168.383C293.889 170.33 289.767 174.223 287.368 182.308L286.544 185.303L255.516 195.634L253.043 192.864C246.747 185.677 234.381 185.078 227.486 191.666C222.764 196.083 220.966 202.671 222.465 209.11C223.214 212.254 224.263 213.901 227.336 216.97C230.484 220.19 231.908 221.013 235.43 221.762C239.028 222.585 239.702 223.034 240.002 224.681C240.527 227.077 244.949 258.82 244.949 259.868C244.949 260.242 243.525 261.29 241.801 262.039C235.58 264.809 232.208 269.6 231.533 276.712L231.083 281.129L214.67 286.595L198.332 292.06L195.559 289.814C192.186 287.193 188.889 286.145 183.867 286.145C174.349 286.22 166.929 293.931 166.929 303.739C166.929 315.941 178.021 323.952 190.313 320.583C196.983 318.711 202.529 310.551 202.079 303.14L201.854 299.247L217.968 293.931L234.081 288.691L237.379 291.536C245.548 298.573 257.54 296.926 263.91 287.867C266.533 284.199 267.433 276.937 265.934 272.295C264.659 268.552 260.238 263.761 256.415 262.039C252.743 260.467 253.343 262.488 250.045 238.831L247.647 221.088L250.794 218.318C254.542 215.174 256.565 211.43 257.315 206.714L257.839 203.345L287.968 193.313L291.565 197.356C299.06 205.741 309.403 206.04 317.347 198.179C320.645 194.96 321.394 193.613 322.143 190.094C324.392 179.014 317.946 169.806 306.779 168.383C305.131 168.159 303.107 168.159 302.283 168.383ZM307.454 178.34C309.028 178.34 312.251 182.009 312.775 184.329C313.749 188.746 309.403 194.062 304.906 194.062C300.259 194.062 296.137 189.196 296.961 184.704C297.711 180.661 302.208 177.142 305.505 178.041C306.105 178.191 306.929 178.34 307.454 178.34ZM245.098 199.078C246.223 200.126 247.347 201.923 247.572 203.12C248.546 207.313 244.049 212.778 239.702 212.778C235.73 212.778 231.458 208.511 231.458 204.543C231.458 202.072 233.707 198.703 236.255 197.431C239.178 196.008 242.475 196.607 245.098 199.078ZM253.642 271.771C257.764 275.065 258.064 279.932 254.392 283.6C251.469 286.52 248.021 286.969 244.949 284.873C242.026 282.851 241.276 281.504 241.201 278.135C241.201 273.718 244.499 270.424 248.921 270.424C250.794 270.424 252.743 271.023 253.642 271.771ZM189.938 298.423C191.886 300.37 192.486 301.567 192.486 303.739C192.486 307.781 188.514 311.599 184.392 311.599C177.422 311.599 174.049 303.14 179.071 298.199C182.368 294.83 186.415 294.904 189.938 298.423Z" fill="url(#paint2_linear_450_640)"/>
<path d="M322.594 208.211L316.748 214.051L318.696 219.366C323.343 232.318 324.167 250.285 320.72 263.461C313.375 291.61 292.015 313.097 263.836 320.733C256.641 322.679 240.302 323.353 232.208 322.155C229.135 321.631 223.739 320.284 220.217 319.086L213.846 316.989L207.701 323.054C204.253 326.422 201.48 329.342 201.48 329.642C201.48 330.615 217.144 336.23 224.339 337.877C230.409 339.224 234.157 339.524 243.825 339.599C261.812 339.599 273.054 336.978 288.418 329.118C315.024 315.492 333.836 289.514 338.782 259.643C340.056 251.782 339.906 235.312 338.407 227.676C336.459 217.794 330.913 202.297 329.264 202.297C328.814 202.297 325.816 204.917 322.594 208.211Z" fill="url(#paint3_linear_450_640)"/>
</g>
<path d="M228.461 100.481C174.424 106.695 128.182 142.406 109.071 192.565C101.726 211.805 99.9273 222.211 100.002 245.344C100.002 261.964 100.152 264.061 102.026 272.895C108.246 302.092 120.238 325.15 140.024 345.588C174.949 381.673 225.088 397.095 274.403 386.839C290.816 383.47 309.328 375.983 322.743 367.374L328.139 363.855L340.655 375.684C374.906 408.4 378.129 411.244 381.801 413.041C399.339 421.725 419.649 410.346 420.923 391.256C421.298 385.042 420.324 380.25 417.551 375.459C416.501 373.662 408.257 365.128 399.114 356.369C389.97 347.609 378.803 336.904 374.306 332.487L366.212 324.626L369.435 319.385C377.154 306.808 383.6 290.263 387.047 274.018C389.371 262.713 390.345 239.206 388.921 227.227C386.972 211.58 382.7 196.982 375.73 182.383C355.495 139.935 316.148 110.064 269.681 101.904C259.938 100.182 237.754 99.4332 228.461 100.481ZM266.383 118.449C321.244 127.807 364.638 172.95 371.983 228.35C377.079 266.306 364.488 304.562 337.658 333.011C327.165 344.091 316.073 352.401 302.882 359.064C282.197 369.47 263.91 373.513 240.452 372.764C219.692 372.09 206.201 368.721 187.615 359.513C152.465 342.069 128.107 311.15 119.338 272.67C109.97 231.569 122.186 187.624 151.416 157.004C167.229 140.459 184.617 129.454 205.602 122.716C225.538 116.278 245.548 114.93 266.383 118.449ZM403.91 386.24C406.458 394.1 397.24 402.036 389.895 398.218C388.696 397.619 378.428 388.261 367.111 377.48C355.795 366.7 346.052 357.492 345.527 356.968C344.777 356.294 346.052 354.572 351.373 349.032C355.045 345.139 358.118 341.695 358.118 341.321C358.118 341.021 368.236 350.379 380.527 362.133C397.54 378.304 403.236 384.218 403.91 386.24Z" fill="url(#paint4_linear_450_640)"/>
<path d="M229.21 151.015C220.891 152.437 215.12 154.084 207.925 157.079C180.719 168.458 160.484 191.666 152.689 220.339C150.741 227.601 150.366 230.671 149.991 240.852C149.392 257.697 151.565 269.6 157.936 284.199L159.584 287.942L166.03 281.504L172.4 275.065L170.901 271.097C167.754 262.488 166.629 255.601 166.704 244.221C166.704 235.612 167.079 232.093 168.353 227.077C174.574 203.27 188.963 185.303 210.098 174.896C222.09 168.982 230.634 166.961 243.824 166.886C254.766 166.736 258.814 167.335 269.231 170.629L275.152 172.501L280.998 166.661C284.295 163.442 286.919 160.522 286.919 160.148C286.919 159.25 278.524 155.581 272.304 153.785C259.488 149.967 241.876 148.844 229.21 151.015Z" fill="url(#paint5_linear_450_640)"/>
<path d="M302.283 168.383C293.889 170.33 289.767 174.223 287.368 182.308L286.544 185.303L255.516 195.634L253.043 192.864C246.747 185.677 234.381 185.078 227.486 191.666C222.764 196.083 220.966 202.671 222.465 209.11C223.214 212.254 224.263 213.901 227.336 216.97C230.484 220.19 231.908 221.013 235.43 221.762C239.028 222.585 239.702 223.034 240.002 224.681C240.527 227.077 244.949 258.82 244.949 259.868C244.949 260.242 243.525 261.29 241.801 262.039C235.58 264.809 232.208 269.6 231.533 276.712L231.083 281.129L214.67 286.595L198.332 292.06L195.559 289.814C192.186 287.193 188.889 286.145 183.867 286.145C174.349 286.22 166.929 293.931 166.929 303.739C166.929 315.941 178.021 323.952 190.313 320.583C196.983 318.711 202.529 310.551 202.079 303.14L201.854 299.247L217.968 293.931L234.081 288.691L237.379 291.536C245.548 298.573 257.54 296.926 263.91 287.867C266.533 284.199 267.433 276.937 265.934 272.295C264.659 268.552 260.238 263.761 256.415 262.039C252.743 260.467 253.343 262.488 250.045 238.831L247.647 221.088L250.794 218.318C254.542 215.174 256.565 211.43 257.315 206.714L257.839 203.345L287.968 193.313L291.565 197.356C299.06 205.741 309.403 206.04 317.347 198.179C320.645 194.96 321.394 193.613 322.143 190.094C324.392 179.014 317.946 169.806 306.779 168.383C305.131 168.159 303.107 168.159 302.283 168.383ZM307.454 178.34C309.028 178.34 312.251 182.009 312.775 184.329C313.749 188.746 309.403 194.062 304.906 194.062C300.259 194.062 296.137 189.196 296.961 184.704C297.711 180.661 302.208 177.142 305.505 178.041C306.105 178.191 306.929 178.34 307.454 178.34ZM245.098 199.078C246.223 200.126 247.347 201.923 247.572 203.12C248.546 207.313 244.049 212.778 239.702 212.778C235.73 212.778 231.458 208.511 231.458 204.543C231.458 202.072 233.707 198.703 236.255 197.431C239.178 196.008 242.475 196.607 245.098 199.078ZM253.642 271.771C257.764 275.065 258.064 279.932 254.392 283.6C251.469 286.52 248.021 286.969 244.949 284.873C242.026 282.851 241.276 281.504 241.201 278.135C241.201 273.718 244.499 270.424 248.921 270.424C250.794 270.424 252.743 271.023 253.642 271.771ZM189.938 298.423C191.886 300.37 192.486 301.567 192.486 303.739C192.486 307.781 188.514 311.599 184.392 311.599C177.422 311.599 174.049 303.14 179.071 298.199C182.368 294.83 186.415 294.904 189.938 298.423Z" fill="url(#paint6_linear_450_640)"/>
<path d="M322.594 208.211L316.748 214.051L318.696 219.366C323.343 232.318 324.167 250.285 320.72 263.461C313.375 291.61 292.015 313.097 263.836 320.733C256.641 322.679 240.302 323.353 232.208 322.155C229.135 321.631 223.739 320.284 220.217 319.086L213.846 316.989L207.701 323.054C204.253 326.422 201.48 329.342 201.48 329.642C201.48 330.615 217.144 336.23 224.339 337.877C230.409 339.224 234.157 339.524 243.825 339.599C261.812 339.599 273.054 336.978 288.418 329.118C315.024 315.492 333.836 289.514 338.782 259.643C340.056 251.782 339.906 235.312 338.407 227.676C336.459 217.794 330.913 202.297 329.264 202.297C328.814 202.297 325.816 204.917 322.594 208.211Z" fill="url(#paint7_linear_450_640)"/>
<defs>
<filter id="filter0_f_450_640" x="0" y="0" width="521" height="516" filterUnits="userSpaceOnUse" color-interpolation-filters="sRGB">
<feFlood flood-opacity="0" result="BackgroundImageFix"/>
<feBlend mode="normal" in="SourceGraphic" in2="BackgroundImageFix" result="shape"/>
<feGaussianBlur stdDeviation="50" result="effect1_foregroundBlur_450_640"/>
</filter>
<linearGradient id="paint0_linear_450_640" x1="260.5" y1="100" x2="260.5" y2="416" gradientUnits="userSpaceOnUse">
<stop stop-color="#3EC100"/>
<stop offset="1" stop-color="#38B0E3"/>
</linearGradient>
<linearGradient id="paint1_linear_450_640" x1="260.5" y1="100" x2="260.5" y2="416" gradientUnits="userSpaceOnUse">
<stop stop-color="#3EC100"/>
<stop offset="1" stop-color="#38B0E3"/>
</linearGradient>
<linearGradient id="paint2_linear_450_640" x1="260.5" y1="100" x2="260.5" y2="416" gradientUnits="userSpaceOnUse">
<stop stop-color="#3EC100"/>
<stop offset="1" stop-color="#38B0E3"/>
</linearGradient>
<linearGradient id="paint3_linear_450_640" x1="260.5" y1="100" x2="260.5" y2="416" gradientUnits="userSpaceOnUse">
<stop stop-color="#3EC100"/>
<stop offset="1" stop-color="#38B0E3"/>
</linearGradient>
<linearGradient id="paint4_linear_450_640" x1="260.5" y1="100" x2="260.5" y2="416" gradientUnits="userSpaceOnUse">
<stop stop-color="#3EC100"/>
<stop offset="1" stop-color="#38B0E3"/>
</linearGradient>
<linearGradient id="paint5_linear_450_640" x1="260.5" y1="100" x2="260.5" y2="416" gradientUnits="userSpaceOnUse">
<stop stop-color="#3EC100"/>
<stop offset="1" stop-color="#38B0E3"/>
</linearGradient>
<linearGradient id="paint6_linear_450_640" x1="260.5" y1="100" x2="260.5" y2="416" gradientUnits="userSpaceOnUse">
<stop stop-color="#3EC100"/>
<stop offset="1" stop-color="#38B0E3"/>
</linearGradient>
<linearGradient id="paint7_linear_450_640" x1="260.5" y1="100" x2="260.5" y2="416" gradientUnits="userSpaceOnUse">
<stop stop-color="#3EC100"/>
<stop offset="1" stop-color="#38B0E3"/>
</linearGradient>
</defs>
</svg>
