<svg width="73" height="85" viewBox="0 0 73 85" fill="none" xmlns="http://www.w3.org/2000/svg">
<path d="M3.13223 0.8075C1.17366 2.125 0.151791 4.08 0.151791 6.6725C0.151791 12.7075 7.64547 15.5125 11.8607 11.0075L13.0528 9.7325L19.695 12.6225L19.9504 22.95H17.2255C15.6927 22.95 14.3302 23.1625 14.0321 23.46C13.3083 24.1825 13.3083 60.8175 14.0321 61.54C14.3302 61.8375 15.6927 62.05 17.2255 62.05H19.9504L19.695 72.3775L13.0528 75.2675L11.8607 73.9925C6.58103 68.34 -2.61576 74.4175 0.705302 81.345C1.98263 83.895 3.81348 85 6.79392 85C9.60405 85 11.4775 83.895 12.84 81.4725C13.6489 80.0275 14.2876 79.6025 18.588 77.7325C21.2704 76.585 23.6121 75.395 23.825 75.14C23.9953 74.8425 24.1656 71.7825 24.1656 68.2975V62.05H34.3843V72.0375L32.8941 72.845C31.2335 73.7375 29.7007 76.4575 29.7007 78.455C29.7433 80.4525 31.1484 83.0875 32.7663 84.065C33.8308 84.745 34.9804 85 36.5558 85C39.6214 85 41.6651 83.64 42.687 80.9625C43.9643 77.7325 42.985 74.7575 40.0046 72.8875L38.6847 72.0375L38.6421 67.0225V62.05H48.8607V68.2975C48.8607 71.7825 49.031 74.8425 49.2014 75.14C49.4142 75.395 51.756 76.585 54.4384 77.7325C58.7388 79.6025 59.3774 80.0275 60.1864 81.4725C61.5489 83.895 63.4223 85 66.2325 85C69.2129 85 71.0437 83.895 72.2785 81.345C74.45 76.925 71.2992 71.825 66.3602 71.825C64.1036 71.825 62.6133 72.42 61.1657 73.9925L59.9735 75.2675L53.3314 72.3775L53.0759 62.05H55.8009C57.3337 62.05 58.6962 61.8375 58.9942 61.54C59.7181 60.8175 59.7181 24.1825 58.9942 23.46C58.6962 23.1625 57.3337 22.95 55.8009 22.95H53.0759L53.3314 12.6225L59.9735 9.7325L61.1657 11.0075C66.4453 16.66 75.6421 10.5825 72.2785 3.655C71.0437 1.105 69.2129 0 66.2325 0C63.4223 0 61.4637 1.1475 60.2716 3.485C59.5477 4.845 58.8665 5.27 54.3958 7.225C51.6283 8.4575 49.2439 9.7325 49.1162 10.0725C48.9885 10.4125 48.8607 13.4725 48.8607 16.83V22.95H38.6421V17.935L38.6847 12.9625L40.0046 12.1125C42.985 10.2425 43.9643 7.2675 42.687 4.0375C41.6651 1.3175 39.6214 0 36.5132 0C33.405 0 31.6167 1.105 30.4671 3.6975C29.0195 7.0125 29.9562 10.1575 33.0218 12.1125L34.3417 12.9625L34.3843 17.935V22.95H24.1656V16.66C24.1656 13.2175 23.9953 10.1575 23.825 9.86C23.6121 9.605 21.2704 8.415 18.588 7.2675C14.2876 5.3975 13.6489 4.9725 12.84 3.5275C11.4775 1.0625 9.60405 0 6.75134 0C5.13339 0 3.98379 0.255 3.13223 0.8075ZM8.45445 5.1425C9.39116 6.0775 9.26343 7.48 8.07125 8.3725C5.94236 10.0725 3.34512 6.8425 5.26112 4.93C6.15525 3.995 7.39001 4.08 8.45445 5.1425ZM37.8757 4.76C38.2163 5.0575 38.6421 5.6525 38.7698 6.035C39.1104 6.9275 37.535 8.925 36.5132 8.925C35.4913 8.925 33.9159 6.9275 34.2566 6.035C34.5972 5.1 35.6616 4.25 36.5132 4.25C36.8964 4.25 37.4925 4.505 37.8757 4.76ZM67.7653 4.93C69.0852 6.2475 68.0633 8.925 66.2325 8.925C65.2957 8.925 63.763 7.48 63.763 6.5875C63.763 5.695 65.2957 4.25 66.275 4.25C66.7434 4.25 67.4246 4.5475 67.7653 4.93ZM55.2474 45.985L53.2462 44.4975C48.1369 40.8425 47.4131 40.375 46.5615 40.375C46.0506 40.375 43.6662 41.82 41.2393 43.5625C38.8124 45.305 36.6835 46.75 36.5132 46.75C36.3855 46.75 34.4269 44.1575 32.2554 40.9275C27.7847 34.4675 27.359 34 26.4223 34C26.0391 34 23.9528 35.7425 21.7813 37.91L17.779 41.82V27.2H55.2474V45.985ZM31.9148 48.45C35.0655 52.9975 37.7479 56.9925 37.9608 57.2475C38.2163 57.6725 36.0874 57.8 28.0402 57.8H17.779V48.2375L21.909 44.115C24.1656 41.82 26.0816 40.035 26.1242 40.0775C26.1668 40.12 28.764 43.9025 31.9148 48.45ZM51.0322 48.45L55.2474 51.4675V57.8H43.8366L41.7077 54.6975C40.5155 52.955 39.4936 51.34 39.4085 51.0425C39.2807 50.575 45.6674 45.56 46.4764 45.5175C46.6893 45.475 48.733 46.835 51.0322 48.45ZM8.07125 76.585C9.26343 77.52 9.39116 78.9225 8.45445 79.8575C7.39001 80.92 6.15525 81.005 5.26112 80.07C3.34512 78.1575 5.94236 74.9275 8.07125 76.585ZM38.1311 77.1375C39.1104 78.37 38.9401 79.73 37.7054 80.3675C35.7468 81.43 33.5327 79.475 34.512 77.5625C35.4487 75.7775 36.939 75.6075 38.1311 77.1375ZM67.6801 76.7975C69.1277 78.115 68.2336 80.75 66.275 80.75C65.2957 80.75 63.763 79.305 63.763 78.4125C63.763 77.5625 65.2957 76.075 66.1899 76.075C66.5731 76.075 67.2543 76.3725 67.6801 76.7975Z" fill="url(#paint0_linear_132_703)"/>
<path d="M46.008 28.6874C41.7928 30.5149 41.9631 36.8899 46.2209 38.7599C48.6904 39.8649 50.6915 39.4824 52.565 37.6124C53.7997 36.3799 53.97 35.9549 53.97 33.8724C53.97 32.1724 53.7571 31.2799 53.0759 30.4299C51.2876 28.1774 48.6904 27.4974 46.008 28.6874ZM49.4994 33.7874C49.4994 34.7649 48.0517 35.1899 47.5834 34.3824C47.0298 33.5324 47.6259 32.6824 48.6052 32.8099C49.1587 32.8949 49.4994 33.2349 49.4994 33.7874Z" fill="url(#paint1_linear_132_703)"/>
<defs>
<linearGradient id="paint0_linear_132_703" x1="36.5" y1="0" x2="36.5" y2="85" gradientUnits="userSpaceOnUse">
<stop stop-color="#3EC100"/>
<stop offset="1" stop-color="#38B0E3"/>
</linearGradient>
<linearGradient id="paint1_linear_132_703" x1="36.5" y1="0" x2="36.5" y2="85" gradientUnits="userSpaceOnUse">
<stop stop-color="#3EC100"/>
<stop offset="1" stop-color="#38B0E3"/>
</linearGradient>
</defs>
</svg>
