<svg width="26" height="15" viewBox="0 0 26 15" fill="none" xmlns="http://www.w3.org/2000/svg">
<path d="M5.86435 0.788921C4.33899 1.11295 3.45059 1.52957 2.37781 2.43995C0.617772 3.90581 -0.287389 6.25119 0.08138 8.31883C0.668059 11.482 3.24944 13.7194 6.73599 14.0743C8.64689 14.2749 11.1277 13.4262 12.5357 12.0992C13.6085 11.0808 14.1114 10.1859 14.4634 8.59657C14.7148 7.43931 14.7148 7.26958 14.4634 6.11232C14.1617 4.7699 13.7594 3.9521 12.9715 3.04172C11.4127 1.26725 8.29488 0.279726 5.86435 0.788921Z" fill="#929292"/>
<path d="M17.8996 1.31354C17.2459 1.63757 16.3072 2.96457 15.8211 4.22984C15.335 5.52597 15.335 9.19834 15.8211 10.4945C16.3408 11.8832 17.313 13.2102 17.9835 13.4725C18.8216 13.7965 19.7267 13.7502 20.3805 13.3336C22.2243 12.1918 23.3306 8.31882 22.6434 5.37167C22.3584 4.1064 21.5538 2.39365 20.9839 1.83817C20.1625 1.02037 18.9221 0.804347 17.8996 1.31354Z" fill="#929292"/>
<path d="M24.2022 2.17763C23.1295 4.415 23.1295 10.3093 24.2022 12.5467L24.571 13.3028L24.9063 12.9479C26.3646 11.2968 26.3646 3.42747 24.9063 1.77645L24.571 1.42155L24.2022 2.17763Z" fill="#929292"/>
</svg>
