<svg width="86" height="85" viewBox="0 0 86 85" fill="none" xmlns="http://www.w3.org/2000/svg">
<path d="M59.2252 0.272898C59.0303 0.466942 58.2506 2.21334 57.4887 4.13614C56.7267 6.05893 56.0888 7.66421 56.0711 7.69949C56.0357 7.73477 55.699 7.55836 55.3091 7.29376C53.7498 6.27062 51.1804 6.00601 49.3375 6.69399C48.044 7.17028 46.5732 8.52858 45.9353 9.81633C45.4923 10.716 45.4392 10.9982 45.4392 12.6741C45.4392 14.3675 45.4923 14.6145 45.9353 15.4612C46.9454 17.3488 48.4338 18.4954 50.4716 18.9011L51.5171 19.1128L50.1172 22.5527C48.7351 26.0102 48.487 27.0686 48.9654 27.4743C49.373 27.8095 58.8531 31.5492 59.3138 31.5492C59.5265 31.5492 59.9163 31.3376 60.1821 31.0906C60.5719 30.7025 60.6074 30.5614 60.4834 29.9969C60.4125 29.6441 60.3416 28.815 60.3416 28.1799C60.3239 27.2097 60.3947 26.9098 60.8023 26.2924C62.7338 23.3994 67.0751 24.352 67.7485 27.8271C67.9966 29.1149 67.1283 30.8436 65.9056 31.5316C64.8247 32.1314 64.5058 33.084 65.1614 33.8072C65.5335 34.2306 74.7479 37.8998 75.4389 37.8998C75.7225 37.8998 76.0946 37.741 76.2541 37.5646C76.4313 37.3706 78.6817 31.9197 81.2865 25.428C85.433 15.0555 86 13.5208 86 12.6741C86 11.5098 85.4861 10.4161 84.6533 9.79869C84.0154 9.34004 61.0327 0.184697 60.129 0.0259336C59.7214 -0.0446278 59.4733 0.0259336 59.2252 0.272898ZM83.1648 12.1978L83.5015 12.6564L79.1247 23.6464C76.7148 29.697 74.677 34.6892 74.6238 34.7598C74.5175 34.848 71.1862 33.6132 69.3256 32.7841L68.918 32.6077L69.5382 31.514C71.3634 28.1799 70.123 24.1403 66.7739 22.5527C64.931 21.6883 62.8047 21.7059 61.0504 22.5879C59.3316 23.4523 57.8431 25.5162 57.6304 27.2979L57.5418 28.1446L54.6712 27.0157C53.1119 26.3806 51.8006 25.8514 51.7652 25.8161C51.7297 25.7985 52.4385 23.9815 53.3245 21.7765C54.1928 19.5891 54.9193 17.5604 54.9193 17.2782C54.9193 16.5549 54.1396 15.9552 53.4131 16.0963C51.1095 16.5549 50.0818 16.3256 48.93 15.0732C47.6719 13.7148 47.6187 11.8273 48.8059 10.275C50.3121 8.3169 53.5194 8.4933 54.8661 10.6101C55.1319 11.0159 55.4686 11.4569 55.6104 11.5627C56.0002 11.8979 56.9394 11.845 57.2761 11.4745C57.4178 11.3158 58.2861 9.34004 59.1721 7.09971L60.8023 3.02479L71.8241 7.38196C80.4891 10.8218 82.899 11.845 83.1648 12.1978Z" fill="url(#paint0_linear_216_659)"/>
<path d="M2.55698 13.362C2.16714 13.5384 1.54695 13.9971 1.19255 14.4028C-0.101004 15.8317 -0.0301245 13.3268 0.0230352 49.3836L0.0761949 81.736L0.607792 82.671C1.17483 83.7118 2.14942 84.4879 3.26578 84.8055C3.77965 84.9466 13.2244 84.9995 36.2425 84.9995C71.1684 84.9995 69.4496 85.0524 70.7431 84.0646C71.0621 83.8176 71.5583 83.2002 71.8418 82.6886L72.3734 81.736L72.4265 65.1012L72.462 48.484L72.0367 48.043L71.5937 47.602H66.2423C61.387 47.602 60.9086 47.5843 61.0149 47.3197C61.3693 46.4024 61.5111 45.3087 61.4402 43.9328C61.387 42.6627 61.263 42.1864 60.82 41.1985C60.0403 39.558 58.729 38.2173 57.0811 37.4058C55.8939 36.8237 55.5926 36.7531 54.051 36.7002C52.6511 36.6473 52.155 36.7002 51.2335 37.0001C48.6996 37.8645 47.0871 39.4521 46.2365 41.9394C45.8112 43.2271 45.7581 45.3793 46.1479 46.6494C46.2897 47.1257 46.4137 47.5314 46.4137 47.549C46.4137 47.5843 44.4291 47.602 41.9837 47.602H37.5538V41.7101C37.5538 36.2239 37.5361 35.8006 37.2171 35.4125C36.7209 34.7951 35.8527 34.9009 34.8426 35.6594C33.7972 36.4533 32.9466 36.7355 31.6176 36.7355C27.9673 36.7002 25.4688 32.837 26.975 29.5559C27.542 28.3034 28.1445 27.6507 29.2609 27.0509C30.0937 26.5747 30.3595 26.5217 31.7062 26.5217C33.3187 26.5217 33.8326 26.6981 35.0907 27.686C35.9413 28.3387 36.6855 28.3563 37.1817 27.7389C37.5361 27.2803 37.5538 27.0862 37.5538 20.5064C37.5538 13.9618 37.5361 13.7148 37.1994 13.3797C36.845 13.0269 36.6146 13.0269 20.0465 13.0269C4.18721 13.0269 3.23034 13.0445 2.55698 13.362ZM34.8958 19.9066C34.8958 22.3233 34.8603 24.3167 34.8249 24.3167C34.7895 24.3167 34.2402 24.1932 33.62 24.0344C29.8811 23.0642 25.8586 25.1105 24.4056 28.6739C24.0689 29.5206 23.9981 30.0322 23.9981 31.6374C23.9981 33.4544 24.0335 33.6484 24.5651 34.7774C25.203 36.1004 26.5852 37.6704 27.7015 38.3231C29.3495 39.2757 32.096 39.6109 33.9389 39.0464C34.4174 38.9053 34.8249 38.7818 34.8603 38.7818C34.8781 38.7818 34.8958 40.7575 34.8958 43.1919V47.602H22.864L22.5096 48.0606C21.9957 48.7133 22.0489 49.2072 22.6868 50.001C24.5119 52.259 24.4056 55.1697 22.4387 57.0925C19.3023 60.1442 14.0218 58.2038 13.6851 53.8819C13.561 52.506 13.88 51.4652 14.7837 50.2656C15.5457 49.2072 15.5988 48.484 14.9432 47.9724C14.4825 47.6196 14.2698 47.602 8.56402 47.602H2.64558V32.3431C2.64558 15.4612 2.59242 16.2551 3.76193 15.7611C4.22265 15.5494 6.98695 15.5142 19.6212 15.4965H34.8958V19.9066ZM55.7167 39.7344C57.0102 40.3341 57.6659 40.9515 58.2683 42.1687C59.2252 44.0562 58.9594 46.032 57.5064 47.9371C56.9216 48.7133 56.9216 49.2601 57.4887 49.807L57.9139 50.248H69.804L69.7685 65.7892L69.7154 81.3303L69.1306 81.8419L68.5636 82.3534H37.5538V77.9434C37.5538 75.509 37.6069 73.5333 37.6601 73.5333C37.7133 73.5333 38.2094 73.6568 38.7587 73.8155C39.4852 74.0272 40.1763 74.0801 41.3281 74.0096C43.4545 73.9037 45.0316 73.1452 46.5555 71.5223C50.4007 67.4297 48.5933 60.5323 43.2596 58.8918C41.8774 58.4684 39.751 58.4331 38.5106 58.8036C38.0322 58.9447 37.6247 59.0682 37.6069 59.0682C37.5715 59.0682 37.5538 57.0748 37.5538 54.6581V50.248H49.4438L49.8691 49.807C50.4716 49.2249 50.4184 48.7486 49.6387 47.602C48.7705 46.3671 48.5401 45.6968 48.5401 44.3561C48.5401 42.3981 49.6033 40.7575 51.4107 39.8578C52.8283 39.1522 54.37 39.0993 55.7167 39.7344ZM11.3815 50.9007C10.7259 52.4707 10.9385 55.3284 11.8422 57.1101C12.4978 58.3802 13.9154 59.7209 15.3507 60.4265C16.538 61.0086 16.8569 61.0968 18.3454 61.1497C19.6567 61.2203 20.2414 61.1497 21.216 60.8499C23.5728 60.1442 25.646 58.0627 26.3371 55.7342C26.7801 54.1994 26.6915 51.9415 26.1244 50.5479C26.0004 50.2656 26.2839 50.248 30.4481 50.248H34.8958V62.0847L35.3388 62.5081C35.9413 63.1255 36.402 63.0549 37.5715 62.2434C38.9005 61.3085 40.3358 60.9381 41.6294 61.185C44.057 61.6437 45.8998 63.7429 45.9353 66.1067C45.9707 68.1177 44.9784 69.8288 43.2064 70.799C42.3559 71.2753 42.0901 71.3282 40.7434 71.3282C39.1308 71.3282 38.5815 71.1342 37.3766 70.164C36.5792 69.4936 35.7641 69.476 35.2679 70.111C34.9135 70.5697 34.8958 70.7814 34.8958 76.4616V82.3534H3.88597L3.31894 81.8419L2.73418 81.3303L2.68102 65.7892L2.64558 50.248H11.665L11.3815 50.9007Z" fill="url(#paint1_linear_216_659)"/>
<defs>
<linearGradient id="paint0_linear_216_659" x1="43" y1="0" x2="43" y2="85" gradientUnits="userSpaceOnUse">
<stop stop-color="#3EC100"/>
<stop offset="1" stop-color="#38B0E3"/>
</linearGradient>
<linearGradient id="paint1_linear_216_659" x1="43" y1="0" x2="43" y2="85" gradientUnits="userSpaceOnUse">
<stop stop-color="#3EC100"/>
<stop offset="1" stop-color="#38B0E3"/>
</linearGradient>
</defs>
</svg>
