<svg width="20" height="21" viewBox="0 0 20 21" fill="none" xmlns="http://www.w3.org/2000/svg">
<path d="M17.3218 0.379395C17.8766 0.379395 18.4087 0.620787 18.8011 1.05047C19.1934 1.48015 19.4138 2.06292 19.4138 2.67058V18.7089C19.4138 19.3166 19.1934 19.8993 18.8011 20.329C18.4087 20.7587 17.8766 21.0001 17.3218 21.0001H2.67814C2.12332 21.0001 1.59122 20.7587 1.1989 20.329C0.806583 19.8993 0.586182 19.3166 0.586182 18.7089V2.67058C0.586182 2.06292 0.806583 1.48015 1.1989 1.05047C1.59122 0.620787 2.12332 0.379395 2.67814 0.379395H17.3218ZM16.7988 18.1361V12.0645C16.7988 11.074 16.4396 10.124 15.8001 9.42367C15.1606 8.72329 14.2933 8.32982 13.3889 8.32982C12.4999 8.32982 11.4643 8.92552 10.9623 9.81909V8.54748H8.044V18.1361H10.9623V12.4883C10.9623 11.6062 11.6108 10.8845 12.4162 10.8845C12.8046 10.8845 13.177 11.0535 13.4516 11.3542C13.7263 11.655 13.8806 12.063 13.8806 12.4883V18.1361H16.7988ZM4.64457 6.7489C5.11062 6.7489 5.55758 6.54613 5.88713 6.1852C6.21668 5.82426 6.40181 5.33473 6.40181 4.8243C6.40181 3.7589 5.61733 2.88825 4.64457 2.88825C4.17575 2.88825 3.72613 3.09222 3.39462 3.4553C3.06311 3.81838 2.87687 4.31083 2.87687 4.8243C2.87687 5.8897 3.67181 6.7489 4.64457 6.7489ZM6.09848 18.1361V8.54748H3.20112V18.1361H6.09848Z" fill="#929292"/>
</svg>
