<svg width="83" height="83" viewBox="0 0 83 83" fill="none" xmlns="http://www.w3.org/2000/svg">
<path d="M37.7035 0.0905858C34.7747 0.379784 29.5318 1.50043 28.4471 2.06075C27.8144 2.38609 27.5793 2.83797 27.5793 3.66941C27.5793 4.4647 28.3929 5.38652 29.0799 5.38652C29.333 5.38652 30.6346 5.09732 31.9906 4.7539C35.2809 3.90438 38.0108 3.57904 41.6446 3.57904C45.0615 3.57904 48.2615 3.97668 51.1721 4.77198C54.2094 5.60342 54.7698 5.5492 55.3484 4.44663C55.7099 3.75978 55.5653 2.87412 55.0049 2.34994C54.2817 1.68117 49.5451 0.542458 45.8027 0.14481C44.1757 -0.0178634 39.1498 -0.0540132 37.7035 0.0905858Z" fill="url(#paint0_linear_132_702)"/>
<path d="M7.11414 7.15786L0.641938 13.6106V15.2373L7.11414 21.6901L13.5683 28.1609H15.1954L21.6495 21.6901L28.1217 15.2373V13.6106L21.6495 7.15786L15.1954 0.687056H13.5683L7.11414 7.15786ZM19.1727 9.72449L23.8732 14.424L14.3818 23.9133L4.89045 14.424L9.59094 9.72449C12.1762 7.13979 14.3276 5.02502 14.3818 5.02502C14.4361 5.02502 16.5874 7.13979 19.1727 9.72449Z" fill="url(#paint1_linear_132_702)"/>
<path d="M61.3505 7.15786L54.8783 13.6106V15.2373L61.3505 21.6901L67.8046 28.1609H69.4317L75.8859 21.6901L82.3581 15.2373V13.6106L75.8859 7.15786L69.4317 0.687056H67.8046L61.3505 7.15786ZM73.4091 9.72449L78.1095 14.424L68.6182 23.9133L59.1268 14.424L63.8273 9.72449C66.4126 7.13979 68.5639 5.02502 68.6182 5.02502C68.6724 5.02502 70.8238 7.13979 73.4091 9.72449Z" fill="url(#paint2_linear_132_702)"/>
<path d="M40.7587 21.2563C39.8006 21.7081 21.9749 33.1857 21.5771 33.6014C20.8721 34.3425 20.8901 35.2281 21.5952 35.9511C22.1195 36.4753 22.1557 36.4753 24.1262 36.4753H26.133V53.2488L24.4878 53.3211C22.9511 53.3753 22.8246 53.4115 22.4088 53.8814C21.8122 54.5682 21.8122 55.6166 22.4088 56.3034L22.8427 56.8095H60.1573L60.5912 56.3034C61.1878 55.6166 61.1878 54.5682 60.5912 53.8814C60.1754 53.4115 60.0488 53.3753 58.5121 53.3211L56.8669 53.2488V36.4753H58.8737C60.8443 36.4753 60.8804 36.4753 61.4047 35.9511C62.1098 35.2281 62.1279 34.3425 61.4409 33.6014C61.1516 33.3122 56.7404 30.4202 51.6241 27.1667C42.3497 21.2743 41.5904 20.8586 40.7587 21.2563ZM47.7371 29.0104L53.9382 32.9507L47.7191 33.0049C44.3022 33.023 38.6978 33.023 35.2809 33.0049L29.0618 32.9507L35.2447 29.0285C38.6254 26.8595 41.4457 25.0881 41.4819 25.0881C41.518 25.0881 44.3383 26.8595 47.7371 29.0104ZM39.6921 53.2849H29.7488V36.4753H39.6921V53.2849ZM53.2512 53.2849H43.3078V36.4753H53.2512V53.2849Z" fill="url(#paint3_linear_132_702)"/>
<path d="M2.4679 27.7452C1.90746 28.3236 1.11199 31.0709 0.443076 34.7582C-0.099288 37.7586 -0.153524 44.7898 0.334603 47.736C0.750415 50.2303 1.63628 53.8633 1.99785 54.5502C2.55829 55.6166 3.93228 55.7974 4.81814 54.9298C5.46898 54.261 5.46898 53.9537 4.80006 51.4232C3.76957 47.501 3.64302 46.3442 3.62494 41.5363C3.62494 36.6199 3.76957 35.5174 4.90854 31.2878C5.52321 28.9923 5.54129 28.8839 5.25203 28.2874C4.72775 27.1668 3.3176 26.8956 2.4679 27.7452Z" fill="url(#paint4_linear_132_702)"/>
<path d="M78.1095 27.8897C77.531 28.4501 77.531 29.2092 78.1095 31.324C78.9954 34.469 79.3208 36.7464 79.4112 40.3614C79.5378 44.4825 79.2123 47.4106 78.2723 51.0979C77.9288 52.4173 77.6576 53.7006 77.6576 53.9537C77.6576 54.6044 78.5796 55.4539 79.2847 55.4539C80.062 55.4539 80.8214 55.0201 81.0745 54.4236C81.4541 53.5018 82.34 49.7423 82.6654 47.6456C83.1535 44.5548 83.0993 37.7225 82.5569 34.7582C81.9603 31.3963 81.1106 28.4139 80.6225 27.8897C80.0259 27.2571 78.7423 27.239 78.1095 27.8897Z" fill="url(#paint5_linear_132_702)"/>
<path d="M7.11414 61.3825L0.641938 67.8352V69.4619L7.11414 75.9147L13.5683 82.3855H15.1954L21.6495 75.9147L28.1217 69.4619V67.8352L21.6495 61.3825L15.1954 54.9117H13.5683L7.11414 61.3825ZM19.1727 63.9491L23.8732 68.6486L14.3818 78.1379L4.89045 68.6486L9.59094 63.9491C12.1762 61.3644 14.3276 59.2496 14.3818 59.2496C14.4361 59.2496 16.5874 61.3644 19.1727 63.9491Z" fill="url(#paint6_linear_132_702)"/>
<path d="M61.3505 61.3825L54.8783 67.8352V69.4619L61.3505 75.9147L67.8046 82.3855H69.4317L75.8859 75.9147L82.3581 69.4619V67.8352L75.8859 61.3825L69.4317 54.9117H67.8046L61.3505 61.3825ZM73.4091 63.9491L78.1095 68.6486L68.6182 78.1379L59.1268 68.6486L63.8273 63.9491C66.4126 61.3644 68.5639 59.2496 68.6182 59.2496C68.6724 59.2496 70.8238 61.3644 73.4091 63.9491Z" fill="url(#paint7_linear_132_702)"/>
<path d="M27.9951 78.1198C27.5793 78.4813 27.4889 78.6982 27.4889 79.367C27.4889 80.4153 27.8686 80.831 29.2787 81.2829C32.9849 82.512 36.4922 83 41.5 83C46.0197 83 48.0445 82.765 51.8591 81.8251C55.041 81.0118 55.4207 80.7587 55.4207 79.4031C55.4207 78.6078 54.6071 77.686 53.9201 77.686C53.667 77.686 52.3653 77.9752 51.0094 78.3186C47.2491 79.2766 44.7723 79.5477 40.5057 79.4392C36.691 79.3489 34.5035 79.0416 31.2855 78.1379C29.2245 77.5775 28.646 77.5595 27.9951 78.1198Z" fill="url(#paint8_linear_132_702)"/>
<defs>
<linearGradient id="paint0_linear_132_702" x1="41.5" y1="0" x2="41.5" y2="83" gradientUnits="userSpaceOnUse">
<stop stop-color="#3EC100"/>
<stop offset="1" stop-color="#38B0E3"/>
</linearGradient>
<linearGradient id="paint1_linear_132_702" x1="41.5" y1="0" x2="41.5" y2="83" gradientUnits="userSpaceOnUse">
<stop stop-color="#3EC100"/>
<stop offset="1" stop-color="#38B0E3"/>
</linearGradient>
<linearGradient id="paint2_linear_132_702" x1="41.5" y1="0" x2="41.5" y2="83" gradientUnits="userSpaceOnUse">
<stop stop-color="#3EC100"/>
<stop offset="1" stop-color="#38B0E3"/>
</linearGradient>
<linearGradient id="paint3_linear_132_702" x1="41.5" y1="0" x2="41.5" y2="83" gradientUnits="userSpaceOnUse">
<stop stop-color="#3EC100"/>
<stop offset="1" stop-color="#38B0E3"/>
</linearGradient>
<linearGradient id="paint4_linear_132_702" x1="41.5" y1="0" x2="41.5" y2="83" gradientUnits="userSpaceOnUse">
<stop stop-color="#3EC100"/>
<stop offset="1" stop-color="#38B0E3"/>
</linearGradient>
<linearGradient id="paint5_linear_132_702" x1="41.5" y1="0" x2="41.5" y2="83" gradientUnits="userSpaceOnUse">
<stop stop-color="#3EC100"/>
<stop offset="1" stop-color="#38B0E3"/>
</linearGradient>
<linearGradient id="paint6_linear_132_702" x1="41.5" y1="0" x2="41.5" y2="83" gradientUnits="userSpaceOnUse">
<stop stop-color="#3EC100"/>
<stop offset="1" stop-color="#38B0E3"/>
</linearGradient>
<linearGradient id="paint7_linear_132_702" x1="41.5" y1="0" x2="41.5" y2="83" gradientUnits="userSpaceOnUse">
<stop stop-color="#3EC100"/>
<stop offset="1" stop-color="#38B0E3"/>
</linearGradient>
<linearGradient id="paint8_linear_132_702" x1="41.5" y1="0" x2="41.5" y2="83" gradientUnits="userSpaceOnUse">
<stop stop-color="#3EC100"/>
<stop offset="1" stop-color="#38B0E3"/>
</linearGradient>
</defs>
</svg>
