<svg width="22" height="22" viewBox="0 0 22 22" fill="none" xmlns="http://www.w3.org/2000/svg">
<path d="M1 11C1 9.68678 1.25866 8.38642 1.7612 7.17317C2.26375 5.95991 3.00035 4.85752 3.92893 3.92893C4.85752 3.00035 5.95991 2.26375 7.17316 1.7612C8.38642 1.25866 9.68678 1 11 1C13.6522 0.999999 16.1957 2.05357 18.0711 3.92893C19.9464 5.8043 21 8.34783 21 11C21 12.3132 20.7413 13.6136 20.2388 14.8268C19.7362 16.0401 18.9997 17.1425 18.0711 18.0711C16.1957 19.9464 13.6522 21 11 21C8.34784 21 5.8043 19.9464 3.92893 18.0711C2.05357 16.1957 1 13.6522 1 11ZM9 16L14 11L9 6L9 16Z" fill="#D9D9D9" stroke="url(#paint0_linear_388_80)"/>
<defs>
<linearGradient id="paint0_linear_388_80" x1="1" y1="11" x2="21" y2="11" gradientUnits="userSpaceOnUse">
<stop stop-color="#3EC100"/>
<stop offset="1" stop-color="#38B0E3"/>
</linearGradient>
</defs>
</svg>
