<svg width="495" height="495" viewBox="0 0 495 495" fill="none" xmlns="http://www.w3.org/2000/svg">
<g filter="url(#filter0_f_455_977)">
<path d="M100 186.242V308.758L186.242 395H308.758L395 308.758V186.242L308.758 100H186.242L100 186.242ZM370.316 191.962V303.038L303.038 370.316H191.962L124.684 303.038V191.962L191.962 124.684H303.038L370.316 191.962Z" fill="url(#paint0_linear_455_977)"/>
<path d="M219.746 143.799C217.729 144.34 215.953 145.454 214.327 147.2C212.672 148.976 211.739 150.692 211.347 152.799C211.137 153.732 210.926 172.847 210.775 201.745C210.625 227.813 210.384 249.878 210.234 250.781C209.902 252.738 208.879 253.822 207.344 253.822C205.989 253.822 205.086 253.039 204.725 251.564C204.544 250.811 204.303 238.62 204.123 219.957C203.972 203.22 203.792 189.253 203.701 188.891C203.611 188.53 202.859 187.236 202.046 186.002C199.457 182.118 196.236 180.282 191.962 180.252C189.072 180.222 187.115 181.005 184.135 183.383C182.058 185.038 181.516 186.032 180.974 189.162C179.8 196.086 179.77 304.513 180.974 313.424C181.125 314.658 181.486 316.614 181.757 317.788C182.449 320.528 186.453 328.445 188.921 331.906C195.152 340.576 203.22 346.656 212.852 349.847C218.331 351.683 219.565 351.743 247.711 351.533L272.153 351.352L276.458 349.817C286.693 346.175 299.486 339.191 307.132 333.08C313.574 327.933 321.732 313.965 324.832 302.707C326.969 295.031 327.03 294.369 327.18 274.742C327.331 253.731 327.21 251.413 325.615 248.223C323.869 244.671 320.889 242.413 316.975 241.69C311.346 240.637 305.446 244.701 303.46 250.962C303.189 251.835 303.038 256.44 302.918 267.367L302.737 282.539L299.727 284.887C298.071 286.181 296.626 287.235 296.506 287.235C296.356 287.235 296.265 259.722 296.265 226.098V164.96L295.151 162.793C293.887 160.385 291.027 157.345 289.191 156.441C287.445 155.568 281.305 155.568 279.619 156.411C277.572 157.405 275.435 159.662 273.93 162.372L272.485 164.93L272.455 188.079C272.455 218.09 272.093 238.078 271.582 239.102C270.468 241.239 268.963 241.751 267.488 240.486C266.765 239.854 266.645 239.493 266.434 237.085C266.314 235.61 266.043 215.863 265.862 193.196L265.501 151.986L264.568 150.451C261.588 145.454 258.156 143.347 253.099 143.347C251.263 143.347 250.6 143.498 249.125 144.25C245.905 145.876 242.684 149.608 242.082 152.528C241.781 153.943 241.269 197.952 241.209 228.084L241.178 239.523L239.764 240.396L238.379 241.299L236.994 240.516L235.61 239.764L235.429 232.419C235.339 228.385 235.218 212.19 235.188 196.477C235.158 180.734 235.008 164.418 234.887 160.174C234.646 152.739 234.616 152.378 233.834 150.722C233.322 149.548 232.298 148.224 230.703 146.658C228.776 144.732 228.084 144.22 226.73 143.829C224.833 143.257 221.733 143.257 219.746 143.799Z" fill="url(#paint1_linear_455_977)"/>
</g>
<path d="M100 186.242V308.758L186.242 395H308.758L395 308.758V186.242L308.758 100H186.242L100 186.242ZM370.316 191.962V303.038L303.038 370.316H191.962L124.684 303.038V191.962L191.962 124.684H303.038L370.316 191.962Z" fill="url(#paint2_linear_455_977)"/>
<path d="M219.746 143.799C217.729 144.34 215.953 145.454 214.327 147.2C212.672 148.976 211.739 150.692 211.347 152.799C211.137 153.732 210.926 172.847 210.775 201.745C210.625 227.813 210.384 249.878 210.234 250.781C209.902 252.738 208.879 253.822 207.344 253.822C205.989 253.822 205.086 253.039 204.725 251.564C204.544 250.811 204.303 238.62 204.123 219.957C203.972 203.22 203.792 189.253 203.701 188.891C203.611 188.53 202.859 187.236 202.046 186.002C199.457 182.118 196.236 180.282 191.962 180.252C189.072 180.222 187.115 181.005 184.135 183.383C182.058 185.038 181.516 186.032 180.974 189.162C179.8 196.086 179.77 304.513 180.974 313.424C181.125 314.658 181.486 316.614 181.757 317.788C182.449 320.528 186.453 328.445 188.921 331.906C195.152 340.576 203.22 346.656 212.852 349.847C218.331 351.683 219.565 351.743 247.711 351.533L272.153 351.352L276.458 349.817C286.693 346.175 299.486 339.191 307.132 333.08C313.574 327.933 321.732 313.965 324.832 302.707C326.969 295.031 327.03 294.369 327.18 274.742C327.331 253.731 327.21 251.413 325.615 248.223C323.869 244.671 320.889 242.413 316.975 241.69C311.346 240.637 305.446 244.701 303.46 250.962C303.189 251.835 303.038 256.44 302.918 267.367L302.737 282.539L299.727 284.887C298.071 286.181 296.626 287.235 296.506 287.235C296.356 287.235 296.265 259.722 296.265 226.098V164.96L295.151 162.793C293.887 160.385 291.027 157.345 289.191 156.441C287.445 155.568 281.305 155.568 279.619 156.411C277.572 157.405 275.435 159.662 273.93 162.372L272.485 164.93L272.455 188.079C272.455 218.09 272.093 238.078 271.582 239.102C270.468 241.239 268.963 241.751 267.488 240.486C266.765 239.854 266.645 239.493 266.434 237.085C266.314 235.61 266.043 215.863 265.862 193.196L265.501 151.986L264.568 150.451C261.588 145.454 258.156 143.347 253.099 143.347C251.263 143.347 250.6 143.498 249.125 144.25C245.905 145.876 242.684 149.608 242.082 152.528C241.781 153.943 241.269 197.952 241.209 228.084L241.178 239.523L239.764 240.396L238.379 241.299L236.994 240.516L235.61 239.764L235.429 232.419C235.339 228.385 235.218 212.19 235.188 196.477C235.158 180.734 235.008 164.418 234.887 160.174C234.646 152.739 234.616 152.378 233.834 150.722C233.322 149.548 232.298 148.224 230.703 146.658C228.776 144.732 228.084 144.22 226.73 143.829C224.833 143.257 221.733 143.257 219.746 143.799Z" fill="url(#paint3_linear_455_977)"/>
<defs>
<filter id="filter0_f_455_977" x="0" y="0" width="495" height="495" filterUnits="userSpaceOnUse" color-interpolation-filters="sRGB">
<feFlood flood-opacity="0" result="BackgroundImageFix"/>
<feBlend mode="normal" in="SourceGraphic" in2="BackgroundImageFix" result="shape"/>
<feGaussianBlur stdDeviation="50" result="effect1_foregroundBlur_455_977"/>
</filter>
<linearGradient id="paint0_linear_455_977" x1="247.5" y1="100" x2="247.5" y2="395" gradientUnits="userSpaceOnUse">
<stop stop-color="#3EC100"/>
<stop offset="1" stop-color="#38B0E3"/>
</linearGradient>
<linearGradient id="paint1_linear_455_977" x1="247.5" y1="100" x2="247.5" y2="395" gradientUnits="userSpaceOnUse">
<stop stop-color="#3EC100"/>
<stop offset="1" stop-color="#38B0E3"/>
</linearGradient>
<linearGradient id="paint2_linear_455_977" x1="247.5" y1="100" x2="247.5" y2="395" gradientUnits="userSpaceOnUse">
<stop stop-color="#3EC100"/>
<stop offset="1" stop-color="#38B0E3"/>
</linearGradient>
<linearGradient id="paint3_linear_455_977" x1="247.5" y1="100" x2="247.5" y2="395" gradientUnits="userSpaceOnUse">
<stop stop-color="#3EC100"/>
<stop offset="1" stop-color="#38B0E3"/>
</linearGradient>
</defs>
</svg>
