<svg width="21" height="21" viewBox="0 0 21 21" fill="none" xmlns="http://www.w3.org/2000/svg">
<path fill-rule="evenodd" clip-rule="evenodd" d="M20.807 10.2974C20.807 15.8527 16.3036 20.3561 10.7483 20.3561C5.19311 20.3561 0.689697 15.8527 0.689697 10.2974C0.689697 4.74218 5.19311 0.23877 10.7483 0.23877C16.3036 0.23877 20.807 4.74218 20.807 10.2974ZM7.51962 11.1501L5.0648 10.3503C5.0648 10.3503 4.77143 10.2312 4.86589 9.96134C4.88534 9.90568 4.92457 9.85833 5.04192 9.77693C5.58584 9.39781 15.1095 5.97476 15.1095 5.97476C15.1095 5.97476 15.3784 5.88415 15.5369 5.94442C15.5762 5.95656 15.6115 5.97891 15.6392 6.00918C15.667 6.03944 15.6862 6.07654 15.695 6.11667C15.7121 6.18756 15.7193 6.26049 15.7162 6.33335C15.7158 6.37198 15.7127 6.40888 15.7091 6.45274C15.7068 6.48046 15.7043 6.51096 15.7021 6.54643C15.6441 7.4823 13.9083 14.467 13.9083 14.467C13.9083 14.467 13.8044 14.8757 13.4323 14.8897C13.3409 14.8927 13.2498 14.8772 13.1645 14.8442C13.0792 14.8112 13.0013 14.7613 12.9357 14.6976C12.544 14.3607 11.6363 13.7165 10.7927 13.134C10.5376 13.3485 10.0277 13.7896 9.50188 14.3155C8.75603 15.0615 8.85192 14.3155 8.85192 14.3155L9.0775 11.918C9.07718 11.9121 9.07785 11.9059 9.07921 11.8999L9.08101 11.8808L9.08469 11.883C9.09518 11.8577 9.11333 11.837 9.11333 11.837C9.11333 11.837 13.5078 7.93092 13.6247 7.52086C13.6338 7.48909 13.5996 7.47342 13.5536 7.48733C13.262 7.59461 8.21144 10.784 7.64523 11.1416L7.64367 11.1426C7.60348 11.1547 7.56099 11.1573 7.51962 11.1501Z" fill="#929292"/>
</svg>
